<?xml version="1.0" encoding="UTF-8"?>
<svg version="1.1" xmlns="http://www.w3.org/2000/svg" width="262" height="227">
<path d="M0 0 C86.46 0 172.92 0 262 0 C262 74.91 262 149.82 262 227 C175.54 227 89.08 227 0 227 C0 152.09 0 77.18 0 0 Z " fill="#FEFEFD" transform="translate(0,0)"/>
<path d="M0 0 C5.06497558 3.43019802 9.07569205 7.63876877 12 13 C12 13.99 12 14.98 12 16 C23.11179469 16.86292581 23.11179469 16.86292581 32.87109375 12.66015625 C34.86749643 9.84858726 36.47619166 7.08982743 38 4 C40.42723981 -0.78132993 40.42723981 -0.78132993 43.015625 -1.76953125 C46.61896758 -1.8388263 49.0291034 -1.76298743 51.93359375 0.51953125 C53.77174456 2.59512693 55.38921597 4.7441298 57 7 C57.54785156 7.6703125 58.09570312 8.340625 58.66015625 9.03125 C62.25479796 13.48259994 64.19438537 17.5831561 66 23 C66.64782307 24.34258984 67.31004769 25.67856592 68 27 C68.61746094 26.855625 69.23492187 26.71125 69.87109375 26.5625 C75.72140455 25.2802401 81.01449037 24.80691904 87 25 C87 25.66 87 26.32 87 27 C86.10796875 27.20496094 85.2159375 27.40992187 84.296875 27.62109375 C83.12640625 27.89050781 81.9559375 28.15992187 80.75 28.4375 C79.58984375 28.70433594 78.4296875 28.97117187 77.234375 29.24609375 C74.81650239 29.80968 72.40556696 30.38669951 70 31 C70.33 31.99 70.66 32.98 71 34 C77.27 34.33 83.54 34.66 90 35 C90 36.32 90 37.64 90 39 C85.38 39.33 80.76 39.66 76 40 C76.30756407 45.12606784 77.39666719 49.26939791 79.25 54.0625 C81.66664024 60.56558729 83.32480342 67.10124404 84.8125 73.875 C85.03131836 74.84961182 85.25013672 75.82422363 85.47558594 76.82836914 C86.64822554 82.34175798 87.23312163 87.3651171 87 93 C87.66 93 88.32 93 89 93 C90.80124025 103.44470612 91.39695106 113.55176328 91.375 124.125 C91.37667679 125.2687207 91.37667679 125.2687207 91.37838745 126.43554688 C91.36882157 139.71508358 90.22805108 152.31584677 86 165 C85.34 165 84.68 165 84 165 C83.690625 166.27875 83.38125 167.5575 83.0625 168.875 C82.52394756 171.10101675 82.0263 172.94739999 81 175 C80.34 175 79.68 175 79 175 C78.6596875 175.7734375 78.6596875 175.7734375 78.3125 176.5625 C74.86413293 182.96661027 71.6940501 186.90090273 65 190 C64.01 190 63.02 190 62 190 C62 190.66 62 191.32 62 192 C43.8616511 199.30665214 24.12261923 198.46747234 4.87635159 198.43590808 C1.91826116 198.43277482 -1.03978336 198.43895163 -3.99786717 198.44494683 C-10.96940323 198.45886793 -17.94081632 198.457527 -24.91235352 198.44604492 C-32.08712131 198.43448904 -39.26151856 198.44879159 -46.43623775 198.4754414 C-52.63202352 198.49758665 -58.82769275 198.50424101 -65.02351528 198.49836498 C-68.70950296 198.49500181 -72.39525136 198.49737164 -76.08120537 198.51461601 C-80.17343784 198.53293923 -84.2649405 198.51891094 -88.35717773 198.50170898 C-89.57013016 198.51137695 -90.78308258 198.52104492 -92.03279114 198.53100586 C-100.20466453 198.45885872 -100.20466453 198.45885872 -104.25306702 196.1231842 C-106.37961796 193.53862062 -106.62007381 192.25453901 -106.5 188.9375 C-106.4896875 188.08027344 -106.479375 187.22304687 -106.46875 186.33984375 C-105.91517335 183.57657365 -105.22480532 182.68434554 -103 181 C-99.43072615 179.81024205 -96.20053028 179.87521845 -92.48828125 179.90234375 C-91.76005661 179.9037587 -91.03183197 179.90517365 -90.28153992 179.90663147 C-87.95848461 179.91222341 -85.63552612 179.92477438 -83.3125 179.9375 C-81.73632952 179.94251604 -80.16015752 179.94707877 -78.58398438 179.95117188 C-74.72261902 179.9621902 -70.86132592 179.97944926 -67 180 C-67 179.01 -67 178.02 -67 177 C-67.66 177 -68.32 177 -69 177 C-72.28571429 168.57142857 -72.28571429 168.57142857 -73 164 C-73.66 164 -74.32 164 -75 164 C-77.22139018 146.31928397 -78.15128194 126.21050418 -73 109 C-72.77183594 108.19949219 -72.54367188 107.39898437 -72.30859375 106.57421875 C-71.6160173 104.34610136 -70.82735587 102.18154821 -70 100 C-69.64035156 98.99453125 -69.28070313 97.9890625 -68.91015625 96.953125 C-66.19987687 89.5756233 -62.98597954 82.76983827 -59 76 C-58.55398437 75.23429687 -58.10796875 74.46859375 -57.6484375 73.6796875 C-55.94030664 70.83978895 -54.4314541 68.4143668 -52.02734375 66.10546875 C-49.80158868 63.79394277 -48.60918367 61.61794977 -47.1875 58.75 C-44.75539006 54.10913715 -42.03836499 50.42849509 -38.41796875 46.65625 C-36.77214918 44.94437575 -36.77214918 44.94437575 -36 42 C-38.31 42 -40.62 42 -43 42 C-43.495 40.02 -43.495 40.02 -44 38 C-41.44012719 36.7200636 -39.48163594 36.92860979 -36.625 36.875 C-32.55669282 36.65300596 -32.55669282 36.65300596 -29.38671875 34.37890625 C-28.14750015 32.24637931 -28.14750015 32.24637931 -27 29 C-30.96 29 -34.92 29 -39 29 C-39.495 27.02 -39.495 27.02 -40 25 C-39 24 -39 24 -35.62109375 23.90234375 C-34.22652923 23.90901631 -32.83198257 23.92097468 -31.4375 23.9375 C-30.37112305 23.94426758 -30.37112305 23.94426758 -29.28320312 23.95117188 C-27.52209987 23.96299136 -25.76103964 23.98092737 -24 24 C-23.34 22.02 -22.68 20.04 -22 18 C-21.34 18 -20.68 18 -20 18 C-19.62875 16.7625 -19.62875 16.7625 -19.25 15.5 C-17.15804855 9.64253595 -14.95807098 3.99844434 -10 0 C-6.04638861 -1.31787046 -4.05226317 -1.0628887 0 0 Z " fill="#B5A79B" transform="translate(135,15)"/>
<path d="M0 0 C5.06497558 3.43019802 9.07569205 7.63876877 12 13 C12 13.99 12 14.98 12 16 C23.11179469 16.86292581 23.11179469 16.86292581 32.87109375 12.66015625 C34.86749643 9.84858726 36.47619166 7.08982743 38 4 C40.42723981 -0.78132993 40.42723981 -0.78132993 43.015625 -1.76953125 C46.61896758 -1.8388263 49.0291034 -1.76298743 51.93359375 0.51953125 C53.77174456 2.59512693 55.38921597 4.7441298 57 7 C57.54785156 7.6703125 58.09570312 8.340625 58.66015625 9.03125 C62.25479796 13.48259994 64.19438537 17.5831561 66 23 C66.64782307 24.34258984 67.31004769 25.67856592 68 27 C68.61746094 26.855625 69.23492187 26.71125 69.87109375 26.5625 C75.72140455 25.2802401 81.01449037 24.80691904 87 25 C87 25.66 87 26.32 87 27 C86.10796875 27.20496094 85.2159375 27.40992187 84.296875 27.62109375 C83.12640625 27.89050781 81.9559375 28.15992187 80.75 28.4375 C79.58984375 28.70433594 78.4296875 28.97117187 77.234375 29.24609375 C74.81650239 29.80968 72.40556696 30.38669951 70 31 C70.33 31.99 70.66 32.98 71 34 C77.27 34.33 83.54 34.66 90 35 C90 36.32 90 37.64 90 39 C85.38 39.33 80.76 39.66 76 40 C76.30756407 45.12606784 77.39666719 49.26939791 79.25 54.0625 C81.66664024 60.56558729 83.32480342 67.10124404 84.8125 73.875 C85.03131836 74.84961182 85.25013672 75.82422363 85.47558594 76.82836914 C86.64822554 82.34175798 87.23312163 87.3651171 87 93 C87.66 93 88.32 93 89 93 C90.80124025 103.44470612 91.39695106 113.55176328 91.375 124.125 C91.37667679 125.2687207 91.37667679 125.2687207 91.37838745 126.43554688 C91.36882157 139.71508358 90.22805108 152.31584677 86 165 C85.34 165 84.68 165 84 165 C83.690625 166.27875 83.38125 167.5575 83.0625 168.875 C82.52394756 171.10101675 82.0263 172.94739999 81 175 C80.34 175 79.68 175 79 175 C78.6596875 175.7734375 78.6596875 175.7734375 78.3125 176.5625 C74.86413293 182.96661027 71.6940501 186.90090273 65 190 C64.01 190 63.02 190 62 190 C62 190.66 62 191.32 62 192 C43.8616511 199.30665214 24.12261923 198.46747234 4.87635159 198.43590808 C1.91826116 198.43277482 -1.03978336 198.43895163 -3.99786717 198.44494683 C-10.96940323 198.45886793 -17.94081632 198.457527 -24.91235352 198.44604492 C-32.08712131 198.43448904 -39.26151856 198.44879159 -46.43623775 198.4754414 C-52.63202352 198.49758665 -58.82769275 198.50424101 -65.02351528 198.49836498 C-68.70950296 198.49500181 -72.39525136 198.49737164 -76.08120537 198.51461601 C-80.17343784 198.53293923 -84.2649405 198.51891094 -88.35717773 198.50170898 C-89.57013016 198.51137695 -90.78308258 198.52104492 -92.03279114 198.53100586 C-100.20466453 198.45885872 -100.20466453 198.45885872 -104.25306702 196.1231842 C-106.37961796 193.53862062 -106.62007381 192.25453901 -106.5 188.9375 C-106.4896875 188.08027344 -106.479375 187.22304687 -106.46875 186.33984375 C-105.91517335 183.57657365 -105.22480532 182.68434554 -103 181 C-99.43072615 179.81024205 -96.20053028 179.87521845 -92.48828125 179.90234375 C-91.76005661 179.9037587 -91.03183197 179.90517365 -90.28153992 179.90663147 C-87.95848461 179.91222341 -85.63552612 179.92477438 -83.3125 179.9375 C-81.73632952 179.94251604 -80.16015752 179.94707877 -78.58398438 179.95117188 C-74.72261902 179.9621902 -70.86132592 179.97944926 -67 180 C-67 179.01 -67 178.02 -67 177 C-67.66 177 -68.32 177 -69 177 C-72.28571429 168.57142857 -72.28571429 168.57142857 -73 164 C-73.66 164 -74.32 164 -75 164 C-77.22139018 146.31928397 -78.15128194 126.21050418 -73 109 C-72.77183594 108.19949219 -72.54367188 107.39898437 -72.30859375 106.57421875 C-71.6160173 104.34610136 -70.82735587 102.18154821 -70 100 C-69.64035156 98.99453125 -69.28070313 97.9890625 -68.91015625 96.953125 C-66.19987687 89.5756233 -62.98597954 82.76983827 -59 76 C-58.55398437 75.23429687 -58.10796875 74.46859375 -57.6484375 73.6796875 C-55.94030664 70.83978895 -54.4314541 68.4143668 -52.02734375 66.10546875 C-49.80158868 63.79394277 -48.60918367 61.61794977 -47.1875 58.75 C-44.75539006 54.10913715 -42.03836499 50.42849509 -38.41796875 46.65625 C-36.77214918 44.94437575 -36.77214918 44.94437575 -36 42 C-38.31 42 -40.62 42 -43 42 C-43.495 40.02 -43.495 40.02 -44 38 C-41.44012719 36.7200636 -39.48163594 36.92860979 -36.625 36.875 C-32.55669282 36.65300596 -32.55669282 36.65300596 -29.38671875 34.37890625 C-28.14750015 32.24637931 -28.14750015 32.24637931 -27 29 C-30.96 29 -34.92 29 -39 29 C-39.495 27.02 -39.495 27.02 -40 25 C-39 24 -39 24 -35.62109375 23.90234375 C-34.22652923 23.90901631 -32.83198257 23.92097468 -31.4375 23.9375 C-30.37112305 23.94426758 -30.37112305 23.94426758 -29.28320312 23.95117188 C-27.52209987 23.96299136 -25.76103964 23.98092737 -24 24 C-23.34 22.02 -22.68 20.04 -22 18 C-21.34 18 -20.68 18 -20 18 C-19.62875 16.7625 -19.62875 16.7625 -19.25 15.5 C-17.15804855 9.64253595 -14.95807098 3.99844434 -10 0 C-6.04638861 -1.31787046 -4.05226317 -1.0628887 0 0 Z M41.625 3.375 C36.70884971 8.29115029 33.6875 14.09237368 33.6875 21.125 C33.790625 22.40375 33.89375 23.6825 34 25 C31.69 24.34 29.38 23.68 27 23 C27 23.99 27 24.98 27 26 C25.35 26 23.7 26 22 26 C21.505 23.03 21.505 23.03 21 20 C20.01 20 19.02 20 18 20 C18 21.65 18 23.3 18 25 C16.1875 24.875 16.1875 24.875 14 24 C12.94991347 22.02583732 11.95012124 20.02417134 11 18 C10.01 17.34 9.02 16.68 8 16 C7.0503853 14.2972426 6.10151679 12.59405327 5.16015625 10.88671875 C3.23011375 7.74796276 1.02522933 5.12664636 -2 3 C-5.08750447 2.08261403 -5.08750447 2.08261403 -8 3 C-12.88590277 7.4547937 -15.56908394 14.62591936 -17 21 C-17.66 21 -18.32 21 -19 21 C-19.33 22.98 -19.66 24.96 -20 27 C-18.93458984 27.38091797 -18.93458984 27.38091797 -17.84765625 27.76953125 C-16.92855469 28.11371094 -16.00945312 28.45789063 -15.0625 28.8125 C-14.14597656 29.14894531 -13.22945312 29.48539063 -12.28515625 29.83203125 C-10 31 -10 31 -9 34 C-9.74765625 33.69964844 -10.4953125 33.39929688 -11.265625 33.08984375 C-12.74289063 32.51943359 -12.74289063 32.51943359 -14.25 31.9375 C-15.71179688 31.36322266 -15.71179688 31.36322266 -17.203125 30.77734375 C-20.04007395 29.98886213 -21.29409552 29.97562188 -24 31 C-24.33 32.98 -24.66 34.96 -25 37 C-20.46298506 38.45184478 -16.81938524 39.23509196 -12 39 C-12 39.99 -12 40.98 -12 42 C-13.299375 41.835 -14.59875 41.67 -15.9375 41.5 C-16.75992188 41.42265625 -17.58234375 41.3453125 -18.4296875 41.265625 C-21 41 -21 41 -23.3203125 40.546875 C-25.90093528 40.20518975 -27.51722958 40.17683548 -30 41 C-33.27559466 44.28169446 -35.55989176 48.07804464 -38 52 C-39.32523088 53.83919874 -40.65802928 55.67297962 -42 57.5 C-44.5604639 60.88167517 -44.5604639 60.88167517 -45 65 C-44.45178085 65.04345047 -43.90356171 65.08690094 -43.33872986 65.13166809 C-37.61072051 65.58804258 -31.88428082 66.0612984 -26.15844727 66.54418945 C-24.02403529 66.72198971 -21.88926514 66.89554522 -19.75415039 67.06469727 C-16.67749726 67.30919475 -13.6024739 67.56914836 -10.52734375 67.83203125 C-9.57915268 67.90404251 -8.63096161 67.97605377 -7.65403748 68.05024719 C-2.18612164 68.53519352 2.13491783 69.40040957 7 72 C8.55460305 75.10920609 8.72720693 78.63083028 8 82 C5.91043473 84.14760875 4.54400702 84.91853035 1.57421875 85.36328125 C-6.54036274 85.22053489 -14.52659853 84.50207865 -22.60107422 83.71655273 C-34.38739662 82.65385153 -46.17771299 82.8144068 -58 83 C-59.25664978 85.90600261 -60 87.79604584 -60 91 C-59.17798096 91.01981934 -58.35596191 91.03963867 -57.5090332 91.06005859 C-53.77653874 91.15544603 -50.0445933 91.26507089 -46.3125 91.375 C-45.01892578 91.4059375 -43.72535156 91.436875 -42.39257812 91.46875 C-41.14541016 91.50742188 -39.89824219 91.54609375 -38.61328125 91.5859375 C-37.46641846 91.6173584 -36.31955566 91.6487793 -35.13793945 91.68115234 C-32.03079044 91.99687137 -29.84833016 92.78243642 -27 94 C-24.18670117 94.26912227 -21.44291694 94.46150822 -18.625 94.5625 C-4.12173224 95.16466748 -4.12173224 95.16466748 -0.0625 98.1875 C2 101 2 101 2.5 104.0625 C1.93732032 107.36824315 1.35745092 108.64442853 -1 111 C-3.69287109 111.42578125 -3.69287109 111.42578125 -6.8984375 111.3125 C-8.06342773 111.27640625 -9.22841797 111.2403125 -10.42871094 111.203125 C-15.83787121 110.89546699 -21.22856714 110.47926844 -26.625 110 C-40.42861045 108.86246309 -54.15847076 108.78570932 -68 109 C-68.48509793 110.37291868 -68.96275513 111.74846703 -69.4375 113.125 C-69.70433594 113.89070313 -69.97117188 114.65640625 -70.24609375 115.4453125 C-75.65728539 133.78168211 -73.34122777 156.54001357 -66 174 C-65.5565625 175.16917969 -65.113125 176.33835938 -64.65625 177.54296875 C-60.73983748 181.16565033 -57.23749539 180.61055307 -52.05078125 180.52734375 C-50.79652344 180.47707031 -49.54226562 180.42679688 -48.25 180.375 C-46.34541016 180.33439453 -46.34541016 180.33439453 -44.40234375 180.29296875 C-41.26750548 180.22225811 -38.13353925 180.11464168 -35 180 C-35 184.62 -35 189.24 -35 194 C-25.5761212 194.04540955 -16.15231655 194.08200673 -6.72835255 194.10362434 C-2.35116787 194.1140062 2.02593726 194.1280615 6.40307617 194.15087891 C10.63710104 194.17280901 14.87105 194.18461057 19.10512733 194.18975449 C20.71043401 194.19341441 22.31573713 194.20055983 23.92101097 194.21146011 C37.146852 194.29759365 50.34855176 194.09557668 62.375 187.875 C63.40753906 187.34519531 63.40753906 187.34519531 64.4609375 186.8046875 C64.96882812 186.53914062 65.47671875 186.27359375 66 186 C66 185.34 66 184.68 66 184 C66.87978516 183.62294922 66.87978516 183.62294922 67.77734375 183.23828125 C70.27764337 181.84531995 71.70759876 180.35777594 73.5625 178.1875 C74.14128906 177.52105469 74.72007812 176.85460937 75.31640625 176.16796875 C79.25332634 171.09838488 80.99557742 166.25042191 82.625 160.125 C82.8415625 159.34769531 83.058125 158.57039062 83.28125 157.76953125 C85.29414286 150.37649884 86.15649659 143.24825267 86.16796875 135.6015625 C86.17129715 134.80833588 86.17462555 134.01510925 86.17805481 133.19784546 C86.18309543 131.52203953 86.18546403 129.84622366 86.18530273 128.17041016 C86.18746391 125.66681245 86.20557967 123.16367473 86.22460938 120.66015625 C86.27186173 107.21133737 85.72805788 93.82052986 81.78125 80.875 C80.80105156 77.26786974 80.19170492 73.6176667 79.5625 69.9375 C78.45797309 63.59096021 76.76057666 57.82944108 74 52 C73.34 52 72.68 52 72 52 C71.98582031 51.39414063 71.97164062 50.78828125 71.95703125 50.1640625 C71.61285258 44.11768038 70.23530602 39.83464475 67.34375 34.5390625 C65.20856937 30.50456421 63.62274112 26.26082863 62 22 C61.34 22 60.68 22 60 22 C59.90203125 21.46375 59.8040625 20.9275 59.703125 20.375 C58.7921528 17.29793834 57.34906459 14.7809819 55.75 12 C54.87601563 10.453125 54.87601563 10.453125 53.984375 8.875 C51.91989137 5.8839371 50.02272767 4.00231642 47 2 C43.97532776 1.74948186 43.97532776 1.74948186 41.625 3.375 Z " fill="#523C2A" transform="translate(135,15)"/>
<path d="M0 0 C0.33 0.66 0.66 1.32 1 2 C1.8189978 2.029729 1.8189978 2.029729 2.65454102 2.06005859 C13.59498469 2.47161846 24.52216634 3.01865205 35.4375 3.875 C36.38890869 3.94122559 37.34031738 4.00745117 38.32055664 4.07568359 C43.80736107 4.53458886 48.14018452 5.34919156 53 8 C55.1272776 11.1909164 55.33381412 13.20159774 55.55859375 16.96484375 C54.67088393 20.19908722 52.77104314 21.2541272 50 23 C41.56684095 24.54042224 31.87958593 22.58865609 23.39868164 21.78710938 C11.62178721 20.70892279 -0.18263334 20.35105328 -12 20 C-12.2165625 21.1446875 -12.2165625 21.1446875 -12.4375 22.3125 C-13 25 -13 25 -14 28 C-13.17798096 27.98952637 -12.35596191 27.97905273 -11.5090332 27.96826172 C-7.77688669 27.92663241 -4.0447891 27.90065147 -0.3125 27.875 C0.98107422 27.85824219 2.27464844 27.84148437 3.60742188 27.82421875 C4.85458984 27.81777344 6.10175781 27.81132813 7.38671875 27.8046875 C8.53358154 27.79421387 9.68044434 27.78374023 10.86206055 27.77294922 C14.02356968 28.00170542 16.11856321 28.75140753 19 30 C21.81329883 30.26912227 24.55708306 30.46150822 27.375 30.5625 C43.06908244 31.21410943 43.06908244 31.21410943 48 36 C49.42662219 38.85324437 49.31033868 40.83454549 49 44 C47.35302734 46.67578125 47.35302734 46.67578125 45 49 C42.20947266 49.5234375 42.20947266 49.5234375 39.0390625 49.375 C37.8830957 49.32988281 36.72712891 49.28476563 35.53613281 49.23828125 C34.36920898 49.15964844 33.20228516 49.08101562 32 49 C30.9594043 48.93167969 29.91880859 48.86335938 28.84667969 48.79296875 C25.68660324 48.55598812 22.53150581 48.28033585 19.375 48 C5.57138955 46.86246309 -8.15847076 46.78570932 -22 47 C-25.34629532 59.60862519 -25.71028508 72.01244814 -26 85 C-26.33 85 -26.66 85 -27 85 C-27.33 81.04 -27.66 77.08 -28 73 C-28.13871766 83.40382487 -27.67371357 93.71861666 -26 104 C-26.33 103.01 -26.66 102.02 -27 101 C-27.66 101 -28.32 101 -29 101 C-31.22139018 83.31928397 -32.15128194 63.21050418 -27 46 C-26.77183594 45.19949219 -26.54367188 44.39898437 -26.30859375 43.57421875 C-25.6160173 41.34610136 -24.82735587 39.18154821 -24 37 C-23.64035156 35.99453125 -23.28070313 34.9890625 -22.91015625 33.953125 C-20.19937102 26.57424636 -16.98036923 19.7739793 -13 13 C-12.54238281 12.19949219 -12.08476563 11.39898437 -11.61328125 10.57421875 C-8.39394358 5.13131453 -8.39394358 5.13131453 -5 4 C-4.67 4.66 -4.34 5.32 -4 6 C-0.87525373 4.36526484 -0.87525373 4.36526484 -0.3125 1.875 C-0.209375 1.25625 -0.10625 0.6375 0 0 Z " fill="#605549" transform="translate(89,78)"/>
<path d="M0 0 C5.06497558 3.43019802 9.07569205 7.63876877 12 13 C12 13.99 12 14.98 12 16 C23.11179469 16.86292581 23.11179469 16.86292581 32.87109375 12.66015625 C34.86749643 9.84858726 36.47619166 7.08982743 38 4 C40.42723981 -0.78132993 40.42723981 -0.78132993 43.015625 -1.76953125 C46.61896758 -1.8388263 49.0291034 -1.76298743 51.93359375 0.51953125 C53.77174456 2.59512693 55.38921597 4.7441298 57 7 C57.54785156 7.6703125 58.09570312 8.340625 58.66015625 9.03125 C62.25479796 13.48259994 64.19438537 17.5831561 66 23 C66.64782307 24.34258984 67.31004769 25.67856592 68 27 C68.61746094 26.855625 69.23492187 26.71125 69.87109375 26.5625 C75.72140455 25.2802401 81.01449037 24.80691904 87 25 C87 25.66 87 26.32 87 27 C86.10796875 27.20496094 85.2159375 27.40992187 84.296875 27.62109375 C83.12640625 27.89050781 81.9559375 28.15992187 80.75 28.4375 C79.58984375 28.70433594 78.4296875 28.97117187 77.234375 29.24609375 C74.81650239 29.80968 72.40556696 30.38669951 70 31 C70.33 31.99 70.66 32.98 71 34 C77.27 34.33 83.54 34.66 90 35 C90 36.32 90 37.64 90 39 C85.38 39.33 80.76 39.66 76 40 C76.30756407 45.12606784 77.39666719 49.26939791 79.25 54.0625 C81.66664024 60.56558729 83.32480342 67.10124404 84.8125 73.875 C85.03131836 74.84961182 85.25013672 75.82422363 85.47558594 76.82836914 C86.64822554 82.34175798 87.23312163 87.3651171 87 93 C87.66 93 88.32 93 89 93 C90.9513651 103.88760529 91.24558042 114.35440486 91.125 125.375 C91.11493716 126.99739023 91.10581722 128.61978659 91.09765625 130.2421875 C91.07593419 134.16161383 91.04159219 138.08073625 91 142 C90.67 142 90.34 142 90 142 C89.97494385 141.28046143 89.9498877 140.56092285 89.92407227 139.81958008 C89.80631938 136.48378245 89.68442493 133.14814764 89.5625 129.8125 C89.52318359 128.68134766 89.48386719 127.55019531 89.44335938 126.38476562 C89.38051758 124.68803711 89.38051758 124.68803711 89.31640625 122.95703125 C89.27974854 121.93585205 89.24309082 120.91467285 89.20532227 119.86254883 C88.90619366 114.23530307 88.43219939 108.61859203 88 103 C87.67 114.88 87.34 126.76 87 139 C86.67 139 86.34 139 86 139 C85.98018066 138.08935791 85.96036133 137.17871582 85.93994141 136.24047852 C85.85874244 108.241324 85.85874244 108.241324 80.78515625 80.87890625 C79.79521297 77.24911421 79.15063385 73.57670581 78.5 69.875 C77.45406548 64.03394237 76.22561074 58.51564401 74 53 C73.34 52.67 72.68 52.34 72 52 C71.46599581 50.1661944 71.02248034 48.30565761 70.625 46.4375 C69.55701628 41.86890296 68.22872294 38.11505644 65.984375 34.0234375 C64.1272774 30.20607021 63.10538565 26.08657724 62 22 C61.34 22 60.68 22 60 22 C59.60167969 21.26394531 59.20335937 20.52789062 58.79296875 19.76953125 C58.26316406 18.79371094 57.73335938 17.81789063 57.1875 16.8125 C56.66542969 15.84957031 56.14335937 14.88664062 55.60546875 13.89453125 C52.33685416 7.50989162 52.33685416 7.50989162 47 3 C43.93288436 3.27882869 42.63629294 4.24247137 40 6 C36.00678737 12.10522972 34.34974335 17.77197069 34 25 C29.25 24.125 29.25 24.125 27 23 C27 23.99 27 24.98 27 26 C25.35 26 23.7 26 22 26 C21.505 23.03 21.505 23.03 21 20 C20.01 20 19.02 20 18 20 C18 21.65 18 23.3 18 25 C15.6875 24.875 15.6875 24.875 13 24 C11.375 21.0625 11.375 21.0625 10 18 C9.01 17.34 8.02 16.68 7 16 C6.02476815 14.2770904 5.05089935 12.55333291 4.09375 10.8203125 C1.71979113 6.86936666 -0.5132695 4.40265618 -5 3.1875 C-8.45470332 4.12314882 -8.81250256 4.66835981 -10.6875 7.5625 C-12.7353764 11.26974892 -14.42808319 15.07020797 -16 19 C-16.33 19.66 -16.66 20.32 -17 21 C-17.66 21 -18.32 21 -19 21 C-19.33 22.98 -19.66 24.96 -20 27 C-19.37351562 27.12117188 -18.74703125 27.24234375 -18.1015625 27.3671875 C-17.28429687 27.53476562 -16.46703125 27.70234375 -15.625 27.875 C-14.81289062 28.03742187 -14.00078125 28.19984375 -13.1640625 28.3671875 C-11 29 -11 29 -9 31 C-9 31.99 -9 32.98 -9 34 C-13.68738665 33.09276387 -18.34193744 32.0452733 -23 31 C-23.66 32.98 -24.32 34.96 -25 37 C-23.96875 37.144375 -22.9375 37.28875 -21.875 37.4375 C-18.57450187 37.91660457 -15.28731659 38.43875083 -12 39 C-12 39.99 -12 40.98 -12 42 C-13.21816406 41.88398437 -14.43632813 41.76796875 -15.69140625 41.6484375 C-24.55180751 40.75553258 -24.55180751 40.75553258 -32.47265625 43.83984375 C-34.23260676 46.47352856 -35.59906666 49.16037231 -37 52 C-38.40546066 53.96086533 -39.8434386 55.89882001 -41.3125 57.8125 C-43.81976474 61.14730988 -45.45870935 64.14343724 -47 68 C-49.125 69.3125 -49.125 69.3125 -51 70 C-51.95490868 62.12200337 -45.319172 55.56580049 -40.90234375 49.6484375 C-39.11944683 47.16629353 -37.53137317 44.64293064 -36 42 C-38.31 42 -40.62 42 -43 42 C-43.33 40.68 -43.66 39.36 -44 38 C-41.44012719 36.7200636 -39.48163594 36.92860979 -36.625 36.875 C-32.55669282 36.65300596 -32.55669282 36.65300596 -29.38671875 34.37890625 C-28.14750015 32.24637931 -28.14750015 32.24637931 -27 29 C-30.96 29 -34.92 29 -39 29 C-39.33 27.68 -39.66 26.36 -40 25 C-39 24 -39 24 -35.62109375 23.90234375 C-34.22652923 23.90901631 -32.83198257 23.92097468 -31.4375 23.9375 C-30.72658203 23.94201172 -30.01566406 23.94652344 -29.28320312 23.95117188 C-27.52209987 23.96299136 -25.76103964 23.98092737 -24 24 C-23.34 22.02 -22.68 20.04 -22 18 C-21.34 18 -20.68 18 -20 18 C-19.7525 17.175 -19.505 16.35 -19.25 15.5 C-17.15804855 9.64253595 -14.95807098 3.99844434 -10 0 C-6.04638861 -1.31787046 -4.05226317 -1.0628887 0 0 Z " fill="#5B4432" transform="translate(135,15)"/>
<path d="M0 0 C-1.11375 0.350625 -2.2275 0.70125 -3.375 1.0625 C-5.33181479 1.80330632 -5.33181479 1.80330632 -7 3 C-8.53045985 6.55892288 -8.53045985 6.55892288 -9 10 C-8.34 10 -7.68 10 -7 10 C-7 8.68 -7 7.36 -7 6 C-5.35 5.67 -3.7 5.34 -2 5 C-2 4.34 -2 3.68 -2 3 C4.60135029 2.22983337 11.0827953 1.86069577 17.7265625 1.90234375 C18.60025482 1.9037587 19.47394714 1.90517365 20.37411499 1.90663147 C23.12444703 1.91216326 25.87469318 1.92470226 28.625 1.9375 C30.50650923 1.94252384 32.38801975 1.94708519 34.26953125 1.95117188 C38.84638652 1.96211021 43.42317877 1.97932638 48 2 C48 5.63 48 9.26 48 13 C30.84 13.33 13.68 13.66 -4 14 C-4 14.66 -4 15.32 -4 16 C40.22 16 84.44 16 130 16 C130 16.33 130 16.66 130 17 C112.48457749 17.0934426 94.96923278 17.16397875 77.45361805 17.20724869 C69.32080058 17.22787372 61.18813799 17.25599306 53.05541992 17.30175781 C45.96690937 17.34162754 38.87851098 17.36743325 31.78989142 17.37635398 C28.03648633 17.38156856 24.28340212 17.39382304 20.53009987 17.42292023 C16.33999016 17.45514023 12.15043826 17.45595933 7.96020508 17.45410156 C6.71583176 17.46848267 5.47145844 17.48286377 4.18937683 17.49768066 C2.47520065 17.48943268 2.47520065 17.48943268 0.72639465 17.48101807 C-0.2645328 17.48470524 -1.25546026 17.48839241 -2.27641582 17.49219131 C-5.78073678 16.8589095 -7.47415188 15.46240974 -10 13 C-10.59375 10.52734375 -10.59375 10.52734375 -10.5 7.9375 C-10.4896875 7.08027344 -10.479375 6.22304687 -10.46875 5.33984375 C-9.91517335 2.57657365 -9.22480532 1.68434554 -7 0 C-3.86650268 -1.04449911 -3.01031744 -0.93423645 0 0 Z " fill="#675647" transform="translate(39,196)"/>
<path d="M0 0 C0.33 0 0.66 0 1 0 C0.88570603 1.77155654 0.75816963 3.54226229 0.625 5.3125 C0.55539063 6.29863281 0.48578125 7.28476563 0.4140625 8.30078125 C0 11 0 11 -2 14 C-2.66 14 -3.32 14 -4 14 C-4 14.66 -4 15.32 -4 16 C-4.66 16 -5.32 16 -6 16 C-6.268125 17.03125 -6.53625 18.0625 -6.8125 19.125 C-8.42280035 24.6991166 -10.52853492 29.19012925 -15 33 C-17.9609375 34.1953125 -17.9609375 34.1953125 -21.375 35.125 C-22.47585937 35.43695313 -23.57671875 35.74890625 -24.7109375 36.0703125 C-38.88841791 39.3263093 -52.78219193 39.2742744 -67.25 39.1875 C-69.67993052 39.17918986 -72.10986224 39.17122503 -74.53979492 39.16357422 C-82.21916804 39.13323361 -89.89822703 39.07786328 -97.57741547 39.01834869 C-100.11371778 38.9991387 -102.65002665 38.98120492 -105.18634033 38.96356201 C-116.36565797 38.88529514 -127.54472176 38.79144536 -138.72375488 38.67959595 C-142.44972512 38.6423883 -146.17569947 38.60908876 -149.9017334 38.57894897 C-154.32978104 38.54253428 -158.75761685 38.4961201 -163.18548393 38.44212532 C-164.83247913 38.42356556 -166.47951558 38.40833718 -168.12657356 38.39660454 C-170.39229452 38.37981665 -172.65754625 38.35087901 -174.9230957 38.31884766 C-176.83696831 38.29886215 -176.83696831 38.29886215 -178.789505 38.2784729 C-181.86352898 38.01183726 -183.36069451 37.44128608 -186 36 C-185.32783573 35.99761165 -184.65567146 35.99522329 -183.96313858 35.99276257 C-167.51596993 35.93331311 -151.06896201 35.85757583 -134.62195206 35.76428509 C-126.6679035 35.71955034 -118.7138975 35.68008604 -110.75976562 35.65356445 C-103.81715688 35.63040164 -96.87468537 35.59680499 -89.93218589 35.55129844 C-86.26505573 35.52760918 -82.59805939 35.50872314 -78.9308548 35.50238609 C-60.19618029 35.46572695 -42.20413099 34.72943548 -24 30 C-24 29.34 -24 28.68 -24 28 C-22.71086513 27.32845067 -21.41859796 26.66291141 -20.125 26 C-19.40570313 25.62875 -18.68640625 25.2575 -17.9453125 24.875 C-16 24 -16 24 -14 24 C-13.6596875 23.2265625 -13.6596875 23.2265625 -13.3125 22.4375 C-11.51782382 19.10452995 -9.50034985 15.85296329 -7 13 C-6.34 13 -5.68 13 -5 13 C-4.01 9.7 -3.02 6.4 -2 3 C-1.34 3 -0.68 3 0 3 C0 2.01 0 1.02 0 0 Z " fill="#E8E7E6" transform="translate(221,177)"/>
<path d="M0 0 C4.29 0 8.58 0 13 0 C13 0.33 13 0.66 13 1 C9.7 1 6.4 1 3 1 C1.99983813 3.00032373 1.50603992 4.83125748 1 7 C1.99 7.33 2.98 7.66 4 8 C6.8576572 13.94392697 7.6869437 19.82217104 8.47265625 26.33984375 C8.64667969 27.21769531 8.82070312 28.09554687 9 29 C9.66 29.33 10.32 29.66 11 30 C11.6328125 32.06640625 11.6328125 32.06640625 12.125 34.5625 C12.37636719 35.80193359 12.37636719 35.80193359 12.6328125 37.06640625 C12.81457031 38.02353516 12.81457031 38.02353516 13 39 C13.33 39 13.66 39 14 39 C15.42002108 45.7831364 16.22731216 52.06697907 16 59 C16.66 59.33 17.32 59.66 18 60 C19.36986811 67.85039802 19.22005953 75.85970541 19.24023438 83.80859375 C19.2498918 86.09933476 19.28097443 88.38915772 19.3125 90.6796875 C19.38075797 100.50010508 18.33205701 109.44489763 16 119 C14.515 119.495 14.515 119.495 13 120 C12.34 120.99 11.68 121.98 11 123 C11.30944701 120.41626766 11.62243957 117.83304867 11.9375 115.25 C12.02451172 114.52039063 12.11152344 113.79078125 12.20117188 113.0390625 C12.9016058 107.33182312 12.9016058 107.33182312 13.52514648 105.22900391 C14.21719119 101.98048558 14.14235741 98.75084334 14.1328125 95.4453125 C14.13376923 94.70731415 14.13472595 93.9693158 14.13571167 93.20895386 C14.13639155 91.643859 14.13455067 90.0787613 14.13037109 88.51367188 C14.12509646 86.16790048 14.1302825 83.82232735 14.13671875 81.4765625 C14.14037513 72.26905749 13.8111301 63.17741046 13 54 C12.34 54 11.68 54 11 54 C10.81824219 53.01902344 10.63648438 52.03804687 10.44921875 51.02734375 C9.92050081 48.17974368 9.38387422 45.3337384 8.84375 42.48828125 C8.32229736 39.73832326 7.82386378 36.98826517 7.34375 34.23046875 C5.88051489 26.19138537 3.74617057 18.73035758 0.89331055 11.07666016 C0.63461182 10.35784668 0.37591309 9.6390332 0.109375 8.8984375 C-0.12813477 8.26599121 -0.36564453 7.63354492 -0.61035156 6.98193359 C-1 5 -1 5 0 0 Z " fill="#F2EFEC" transform="translate(211,54)"/>
<path d="M0 0 C0.33 0 0.66 0 1 0 C1.00386719 1.76537109 1.00386719 1.76537109 1.0078125 3.56640625 C1.18388484 13.48039863 2.29609376 22.705603 4.8125 32.3125 C5.1849585 33.7512146 5.1849585 33.7512146 5.56494141 35.21899414 C7.08431125 40.70410304 9.04519669 45.1479694 12 50 C12 50.66 12 51.32 12 52 C20.91 52 29.82 52 39 52 C39 52.99 39 53.98 39 55 C18.21 55.33 -2.58 55.66 -24 56 C-24 56.66 -24 57.32 -24 58 C-26.475 58.495 -26.475 58.495 -29 59 C-29 60.32 -29 61.64 -29 63 C-29.66 63 -30.32 63 -31 63 C-31.36241611 57.56375839 -31.36241611 57.56375839 -29.875 55.25 C-25.24058035 52.1603869 -20.51587458 51.75649669 -15.0703125 51.8046875 C-13.13671875 51.81435547 -13.13671875 51.81435547 -11.1640625 51.82421875 C-9.81770558 51.84092537 -8.47135141 51.85785521 -7.125 51.875 C-5.75521483 51.88504336 -4.38542258 51.89416683 -3.015625 51.90234375 C0.32309756 51.92585588 3.66145761 51.9587207 7 52 C7 51.01 7 50.02 7 49 C6.34 49 5.68 49 5 49 C-1.21166157 33.47084608 -2.49301529 16.51622627 0 0 Z " fill="#452B17" transform="translate(61,143)"/>
<path d="M0 0 C0.33 1.32 0.66 2.64 1 4 C-3.62 4.33 -8.24 4.66 -13 5 C-12.69243593 10.12606784 -11.60333281 14.26939791 -9.75 19.0625 C-7.33335976 25.56558729 -5.67519658 32.10124404 -4.1875 38.875 C-3.96868164 39.84961182 -3.74986328 40.82422363 -3.52441406 41.82836914 C-2.35177446 47.34175798 -1.76687837 52.3651171 -2 58 C-1.34 58 -0.68 58 0 58 C1.9513651 68.88760529 2.24558042 79.35440486 2.125 90.375 C2.11493716 91.99739023 2.10581722 93.61978659 2.09765625 95.2421875 C2.07593419 99.16161383 2.04159219 103.08073625 2 107 C1.67 107 1.34 107 1 107 C0.97494385 106.28046143 0.9498877 105.56092285 0.92407227 104.81958008 C0.80631938 101.48378245 0.68442493 98.14814764 0.5625 94.8125 C0.52318359 93.68134766 0.48386719 92.55019531 0.44335938 91.38476562 C0.40146484 90.25361328 0.35957031 89.12246094 0.31640625 87.95703125 C0.27974854 86.93585205 0.24309082 85.91467285 0.20532227 84.86254883 C-0.09380634 79.23530307 -0.56780061 73.61859203 -1 68 C-1.33 79.88 -1.66 91.76 -2 104 C-2.33 104 -2.66 104 -3 104 C-3.01981934 103.08935791 -3.03963867 102.17871582 -3.06005859 101.24047852 C-3.14125756 73.241324 -3.14125756 73.241324 -8.21484375 45.87890625 C-9.20478703 42.24911421 -9.84936615 38.57670581 -10.5 34.875 C-11.54593452 29.03394237 -12.77438926 23.51564401 -15 18 C-15.66 17.67 -16.32 17.34 -17 17 C-17.08038183 13.46319951 -17.01766138 10.39220461 -16 7 C-15.67 5.68 -15.34 4.36 -15 3 C-10.05 3 -5.1 3 0 3 C0 2.01 0 1.02 0 0 Z " fill="#715E50" transform="translate(224,50)"/>
<path d="M0 0 C0.9075 0.639375 1.815 1.27875 2.75 1.9375 C7.6921129 5.07384088 11.33811147 5.13297075 17.17211914 5.18945312 C17.89149847 5.19776626 18.6108778 5.20607939 19.3520565 5.21464443 C21.74639883 5.24126641 24.14075067 5.26119287 26.53515625 5.28125 C28.23080434 5.29905616 29.92644747 5.3173408 31.62208557 5.33607483 C35.2296647 5.37519084 38.83725644 5.41160469 42.44488525 5.4458313 C50.86219289 5.52597813 59.27934592 5.62018313 67.69650269 5.71469307 C69.56568223 5.7356581 71.43486356 5.75646426 73.30404663 5.77711296 C89.74626666 5.95930696 106.18526943 6.22052137 122.625 6.5625 C123.6998465 6.58473633 124.77469299 6.60697266 125.8821106 6.62988281 C131.5881786 6.74872343 137.29413396 6.87183848 143 7 C143 7.33 143 7.66 143 8 C136.48286651 9.18275979 130.06494397 9.13380605 123.45532227 9.11352539 C122.20584305 9.11367142 120.95636383 9.11381744 119.66902161 9.1139679 C116.26042988 9.11339257 112.85189949 9.10839373 109.44331861 9.10139394 C105.87456269 9.09512245 102.30580587 9.09455361 98.73704529 9.09336853 C91.98698723 9.09026638 85.23694545 9.08206808 78.48689455 9.07201904 C70.79885173 9.06082319 63.11080812 9.05533872 55.42275918 9.05032361 C39.61516337 9.03988449 23.80758379 9.02230673 8 9 C7.67 8.01 7.34 7.02 7 6 C5.11683841 4.89163577 5.11683841 4.89163577 3 4 C2.01 3.34 1.02 2.68 0 2 C0 1.34 0 0.68 0 0 Z " fill="#EDEDED" transform="translate(29,209)"/>
<path d="M0 0 C-1.11375 0.350625 -2.2275 0.70125 -3.375 1.0625 C-5.33181479 1.80330632 -5.33181479 1.80330632 -7 3 C-8.53045985 6.55892288 -8.53045985 6.55892288 -9 10 C-8.34 10 -7.68 10 -7 10 C-7 8.68 -7 7.36 -7 6 C-5.35 5.67 -3.7 5.34 -2 5 C-2 4.34 -2 3.68 -2 3 C1.3 3 4.6 3 8 3 C8 6.3 8 9.6 8 13 C2.06 13.495 2.06 13.495 -4 14 C-4 14.66 -4 15.32 -4 16 C40.22 16 84.44 16 130 16 C130 16.33 130 16.66 130 17 C112.48457749 17.0934426 94.96923278 17.16397875 77.45361805 17.20724869 C69.32080058 17.22787372 61.18813799 17.25599306 53.05541992 17.30175781 C45.96690937 17.34162754 38.87851098 17.36743325 31.78989142 17.37635398 C28.03648633 17.38156856 24.28340212 17.39382304 20.53009987 17.42292023 C16.33999016 17.45514023 12.15043826 17.45595933 7.96020508 17.45410156 C6.71583176 17.46848267 5.47145844 17.48286377 4.18937683 17.49768066 C2.47520065 17.48943268 2.47520065 17.48943268 0.72639465 17.48101807 C-0.2645328 17.48470524 -1.25546026 17.48839241 -2.27641582 17.49219131 C-5.78073678 16.8589095 -7.47415188 15.46240974 -10 13 C-10.59375 10.52734375 -10.59375 10.52734375 -10.5 7.9375 C-10.4896875 7.08027344 -10.479375 6.22304687 -10.46875 5.33984375 C-9.91517335 2.57657365 -9.22480532 1.68434554 -7 0 C-3.86650268 -1.04449911 -3.01031744 -0.93423645 0 0 Z " fill="#76624F" transform="translate(39,196)"/>
<path d="M0 0 C29.13344471 -0.07764499 58.25868572 0.12620284 87.39007568 0.46356201 C92.78932853 0.52557702 98.18861083 0.58491765 103.58789062 0.64453125 C114.05862295 0.7605091 124.52932138 0.87927648 135 1 C131.74759356 2.92811046 129.34201669 3.24776451 125.5836792 3.24050903 C124.48434052 3.24325836 123.38500183 3.24600769 122.25234985 3.24884033 C121.05113495 3.24164978 119.84992004 3.23445923 118.61230469 3.22705078 C116.70948227 3.22748886 116.70948227 3.22748886 114.76821899 3.22793579 C111.29330333 3.22850949 107.8185258 3.21675241 104.34364223 3.20278788 C100.71081175 3.19028342 97.07797808 3.18911024 93.44512939 3.18673706 C86.56745122 3.18052145 79.68983665 3.16410955 72.81218648 3.14403808 C64.98153824 3.12168159 57.15088696 3.11068628 49.32021475 3.10064721 C33.21343927 3.07974339 17.10672775 3.04456585 1 3 C0.67 2.01 0.34 1.02 0 0 Z " fill="#3E250D" transform="translate(34,209)"/>
<path d="M0 0 C-1 2 -1 2 -4.23516846 3.10882568 C-10.18151161 4.45403093 -16.17048864 4.27880145 -22.23730469 4.25878906 C-24.20451729 4.26404602 -24.20451729 4.26404602 -26.21147156 4.26940918 C-29.78763671 4.27847953 -33.36368569 4.27501213 -36.93985271 4.26865101 C-40.68958015 4.26356741 -44.43929803 4.26828861 -48.18902588 4.27142334 C-54.48003924 4.27505433 -60.77100552 4.27028482 -67.06201172 4.26074219 C-74.33301386 4.24984035 -81.60390398 4.2533992 -88.87490344 4.264395 C-95.1264653 4.27347005 -101.37799344 4.27475266 -107.62955976 4.26951766 C-111.35977596 4.26640159 -115.08993947 4.26597902 -118.82015228 4.27259064 C-122.97359363 4.27943947 -127.12684146 4.26994787 -131.28027344 4.25878906 C-132.51567368 4.26283752 -133.75107391 4.26688599 -135.02391052 4.27105713 C-136.1537587 4.26541748 -137.28360687 4.25977783 -138.44769287 4.25396729 C-139.91988092 4.25283621 -139.91988092 4.25283621 -141.42181015 4.25168228 C-144.07938691 3.99225027 -145.72275561 3.35579178 -148 2 C-147.31769601 1.99576806 -146.63539202 1.99153612 -145.93241215 1.98717594 C-129.30557587 1.88372526 -112.67878252 1.77506643 -96.05201817 1.66066074 C-88.01133695 1.60545899 -79.9706513 1.55199898 -71.92993164 1.50268555 C-64.91899892 1.45968329 -57.90809714 1.41336589 -50.89721245 1.36312145 C-47.1874265 1.33664912 -43.47764619 1.31180036 -39.76782417 1.29092598 C-35.61933986 1.26752107 -31.47094135 1.23671264 -27.32250977 1.20532227 C-26.10186829 1.1995668 -24.88122681 1.19381134 -23.62359619 1.18788147 C-15.74226707 1.1201992 -7.83734494 -0.25281758 0 0 Z " fill="#CDC2B6" transform="translate(183,211)"/>
<path d="M0 0 C0.33 0 0.66 0 1 0 C1.33 0.99 1.66 1.98 2 3 C2.598125 2.835 3.19625 2.67 3.8125 2.5 C6 2 6 2 9 2 C9.62390625 1.83628906 10.2478125 1.67257813 10.890625 1.50390625 C13.24795316 0.94076675 15.32999671 0.90191172 17.75 0.9375 C18.54921875 0.94652344 19.3484375 0.95554688 20.171875 0.96484375 C20.77515625 0.97644531 21.3784375 0.98804688 22 1 C22.33 2.65 22.66 4.3 23 6 C21.02 6 19.04 6 17 6 C17 7.65 17 9.3 17 11 C14.625 11.625 14.625 11.625 12 12 C11.34 11.34 10.68 10.68 10 10 C10 9.01 10 8.02 10 7 C9.34 7 8.68 7 8 7 C8.33 8.98 8.66 10.96 9 13 C5.73862487 14.73260554 3.51642515 15.09766638 -0.0625 14.5625 C-3.34013749 14.09426607 -4.99834684 13.87438006 -8 15 C-7.27991594 10.39146203 -5.68704061 6.32762591 -4 2 C-2.68 2 -1.36 2 0 2 C0 1.34 0 0.68 0 0 Z " fill="#AF9E92" transform="translate(173,45)"/>
<path d="M0 0 C4.29 0 8.58 0 13 0 C13 3.63 13 7.26 13 11 C31.48 11 49.96 11 69 11 C69 11.33 69 11.66 69 12 C42.27 12 15.54 12 -12 12 C-12 11.67 -12 11.34 -12 11 C-8.04 11 -4.08 11 0 11 C0 7.37 0 3.74 0 0 Z " fill="#614831" transform="translate(87,198)"/>
<path d="M0 0 C2.93181985 0.16631069 4.3610204 0.50681704 6.68359375 2.33203125 C8.52201117 4.40792798 10.1393101 6.55599648 11.75 8.8125 C12.32105469 9.51761719 12.89210937 10.22273438 13.48046875 10.94921875 C16.28102167 14.44159472 18.46058041 17.18178649 18.75 21.8125 C17.76 21.4825 16.77 21.1525 15.75 20.8125 C15.255 22.2975 15.255 22.2975 14.75 23.8125 C14.35167969 23.07644531 13.95335937 22.34039062 13.54296875 21.58203125 C13.01316406 20.60621094 12.48335937 19.63039063 11.9375 18.625 C11.41542969 17.66207031 10.89335937 16.69914062 10.35546875 15.70703125 C7.08685416 9.32239162 7.08685416 9.32239162 1.75 4.8125 C-1.31711564 5.09132869 -2.61370706 6.05497137 -5.25 7.8125 C-6.62545235 10.11670622 -6.62545235 10.11670622 -7.8125 12.75 C-9.17086898 15.62331009 -10.4807279 18.15859185 -12.25 20.8125 C-15.05435411 20.86882424 -17.60146678 20.77064702 -20.375 20.5 C-21.50615234 20.4081543 -21.50615234 20.4081543 -22.66015625 20.31445312 C-24.52463438 20.1610467 -26.38752498 19.98856541 -28.25 19.8125 C-28.25 19.4825 -28.25 19.1525 -28.25 18.8125 C-23.63 18.4825 -19.01 18.1525 -14.25 17.8125 C-13.8375 16.760625 -13.425 15.70875 -13 14.625 C-11.54256949 11.2082879 -9.64924592 8.66160453 -7.25 5.8125 C-6.858125 4.884375 -6.46625 3.95625 -6.0625 3 C-3.92164238 0.41620632 -3.24743552 0.30770963 0 0 Z " fill="#523723" transform="translate(180.25,13.1875)"/>
<path d="M0 0 C1.98 0.99 1.98 0.99 4 2 C4 3.32 4 4.64 4 6 C5.051875 5.67 6.10375 5.34 7.1875 5 C13.05298373 3.49928164 18.99092943 3.83511697 25 4 C25.625 6.875 25.625 6.875 26 10 C25.34 10.66 24.68 11.32 24 12 C24.33 12.99 24.66 13.98 25 15 C19.06 15 13.12 15 7 15 C6.67 13.68 6.34 12.36 6 11 C11.66748157 8.16625922 16.69732561 7.36776168 23 7 C23 6.34 23 5.68 23 5 C21.82244141 5.19916016 21.82244141 5.19916016 20.62109375 5.40234375 C15.08812013 6.33242643 9.55926159 7.24191887 4 8 C0 2.25 0 2.25 0 0 Z " fill="#B4A69D" transform="translate(199,35)"/>
<path d="M0 0 C0 0.99 0 1.98 0 3 C-0.99 3.33 -1.98 3.66 -3 4 C-0.525 4.495 -0.525 4.495 2 5 C2.33 4.34 2.66 3.68 3 3 C3 5.64 3 8.28 3 11 C-1.75 10.125 -1.75 10.125 -4 9 C-4 9.99 -4 10.98 -4 12 C-5.65 12 -7.3 12 -9 12 C-9.33 10.02 -9.66 8.04 -10 6 C-10.99 6 -11.98 6 -13 6 C-13 7.65 -13 9.3 -13 11 C-15.375 10.8125 -15.375 10.8125 -18 10 C-19.59660706 7.11090151 -20 5.30941204 -20 2 C-19.42967041 1.97494385 -18.85934082 1.9498877 -18.27172852 1.92407227 C-15.70173843 1.80843451 -13.13214473 1.68556376 -10.5625 1.5625 C-9.66466797 1.52318359 -8.76683594 1.48386719 -7.84179688 1.44335938 C-6.98779297 1.40146484 -6.13378906 1.35957031 -5.25390625 1.31640625 C-4.46314697 1.27974854 -3.6723877 1.24309082 -2.85766602 1.20532227 C-0.98598559 1.19436743 -0.98598559 1.19436743 0 0 Z " fill="#523E2D" transform="translate(166,29)"/>
<path d="M0 0 C3.63 0 7.26 0 11 0 C9.66888177 6.27527167 6.87274907 10.46555564 3.0625 15.5625 C-0.40748168 20.26255902 -3.41462209 24.74092381 -6 30 C-8.1875 31.375 -8.1875 31.375 -10 32 C-11.03334691 23.47488799 -2.89079643 15.30681758 2 9 C2.55558594 8.45859375 3.11117187 7.9171875 3.68359375 7.359375 C5.26691278 5.92058622 5.26691278 5.92058622 6 3 C3.69 3 1.38 3 -1 3 C-0.67 2.01 -0.34 1.02 0 0 Z " fill="#4C3A29" transform="translate(94,53)"/>
<path d="M0 0 C4.67875629 4.67875629 4.22967058 13.37018024 4.25224304 19.66191101 C4.24505753 20.55078506 4.23787201 21.43965912 4.23046875 22.35546875 C4.23001053 23.30134354 4.22955231 24.24721832 4.2290802 25.22175598 C4.22608199 27.20408395 4.21826965 29.18641009 4.20581055 31.16870117 C4.18748467 34.19002691 4.18530181 37.21104615 4.18554688 40.23242188 C4.18063281 42.16927346 4.17480498 44.10612299 4.16796875 46.04296875 C4.16685593 46.9379155 4.1657431 47.83286224 4.16459656 48.75492859 C4.12810895 53.6054192 3.81368099 58.21652977 3 63 C1.515 63.495 1.515 63.495 0 64 C-0.66 64.99 -1.32 65.98 -2 67 C-1.69055299 64.41626766 -1.37756043 61.83304867 -1.0625 59.25 C-0.97548828 58.52039063 -0.88847656 57.79078125 -0.79882812 57.0390625 C-0.09822209 51.33042077 -0.09822209 51.33042077 0.52514648 49.23339844 C1.22091146 45.96097788 1.14234188 42.70468847 1.1328125 39.375 C1.13376923 38.6322583 1.13472595 37.8895166 1.13571167 37.12426758 C1.13639139 35.55078039 1.13455161 33.97729038 1.13037109 32.40380859 C1.12508059 30.03606569 1.1302914 27.6685178 1.13671875 25.30078125 C1.14006604 16.8174218 0.90870824 8.44539779 0 0 Z " fill="#D3CBC4" transform="translate(224,110)"/>
<path d="M0 0 C0.33 0 0.66 0 1 0 C1 2.64 1 5.28 1 8 C1.66 8 2.32 8 3 8 C4.9513651 18.88760529 5.24558042 29.35440486 5.125 40.375 C5.11493716 41.99739023 5.10581722 43.61978659 5.09765625 45.2421875 C5.07593419 49.16161383 5.04159219 53.08073625 5 57 C4.67 57 4.34 57 4 57 C3.97494385 56.28046143 3.9498877 55.56092285 3.92407227 54.81958008 C3.80631938 51.48378245 3.68442493 48.14814764 3.5625 44.8125 C3.52318359 43.68134766 3.48386719 42.55019531 3.44335938 41.38476562 C3.40146484 40.25361328 3.35957031 39.12246094 3.31640625 37.95703125 C3.27974854 36.93585205 3.24309082 35.91467285 3.20532227 34.86254883 C2.90619366 29.23530307 2.43219939 23.61859203 2 18 C1.67 29.88 1.34 41.76 1 54 C0.67 54 0.34 54 0 54 C-0.02505615 53.07888428 -0.0501123 52.15776855 -0.07592773 51.20874023 C-0.17240118 47.71403898 -0.27152732 44.21943206 -0.37231445 40.72485352 C-0.41500533 39.22683548 -0.45670945 37.72878892 -0.49731445 36.23071289 C-0.77190646 26.13182919 -1.24864648 16.07551247 -2 6 C-1.67 6 -1.34 6 -1 6 C-0.67 4.02 -0.34 2.04 0 0 Z " fill="#75604E" transform="translate(221,100)"/>
<path d="M0 0 C4.62 0 9.24 0 14 0 C14 3.3 14 6.6 14 10 C9.38 10 4.76 10 0 10 C0 6.7 0 3.4 0 0 Z " fill="#B0A194" transform="translate(47,199)"/>
<path d="M0 0 C4.29 0 8.58 0 13 0 C13 0.33 13 0.66 13 1 C9.7 1 6.4 1 3 1 C1.99983813 3.00032373 1.50603992 4.83125748 1 7 C1.99 7.33 2.98 7.66 4 8 C6.79796528 13.81976778 7.67062983 19.57119916 8.47265625 25.94921875 C8.86225121 28.93115562 8.86225121 28.93115562 9.98828125 31.25 C11.54875043 35.49158417 11.73859986 39.83089185 12.125 44.3125 C12.21136719 45.24384766 12.29773438 46.17519531 12.38671875 47.13476562 C12.59790805 49.42264973 12.80211266 51.71093346 13 54 C12.34 54 11.68 54 11 54 C10.81824219 53.01902344 10.63648438 52.03804687 10.44921875 51.02734375 C9.92050081 48.17974368 9.38387422 45.3337384 8.84375 42.48828125 C8.32229736 39.73832326 7.82386378 36.98826517 7.34375 34.23046875 C5.88051489 26.19138537 3.74617057 18.73035758 0.89331055 11.07666016 C0.63461182 10.35784668 0.37591309 9.6390332 0.109375 8.8984375 C-0.12813477 8.26599121 -0.36564453 7.63354492 -0.61035156 6.98193359 C-1 5 -1 5 0 0 Z " fill="#DFD6D0" transform="translate(211,54)"/>
<path d="M0 0 C4.29 0 8.58 0 13 0 C13 3.3 13 6.6 13 10 C8.71 10 4.42 10 0 10 C0 6.7 0 3.4 0 0 Z " fill="#B1A497" transform="translate(74,199)"/>
<path d="M0 0 C1.16380158 4.1195848 1.0285021 8.02255284 0.87890625 12.265625 C0.85529526 13.05902283 0.83168427 13.85242065 0.80735779 14.66986084 C0.73096071 17.19676683 0.64683387 19.72334767 0.5625 22.25 C0.5092553 23.96613008 0.45651507 25.68227588 0.40429688 27.3984375 C0.27537813 31.59916311 0.13952774 35.79961392 0 40 C-0.33 40 -0.66 40 -1 40 C-1.33 36.04 -1.66 32.08 -2 28 C-2.13871766 38.40382487 -1.67371357 48.71861666 0 59 C-0.495 57.515 -0.495 57.515 -1 56 C-1.66 56 -2.32 56 -3 56 C-4.03359163 47.77333173 -4.22976764 39.59790901 -4.25 31.3125 C-4.25300613 30.32027939 -4.25300613 30.32027939 -4.256073 29.30801392 C-4.26326235 19.62601421 -4.00857204 10.27513142 -1 1 C-0.67 0.67 -0.34 0.34 0 0 Z " fill="#756352" transform="translate(63,123)"/>
<path d="M0 0 C0.33 0 0.66 0 1 0 C1.00386719 1.76537109 1.00386719 1.76537109 1.0078125 3.56640625 C1.24583821 16.67261261 3.74346735 28.43490311 7.46508789 40.97900391 C8 43 8 43 8 45 C7.34 45 6.68 45 6 45 C5.67 46.32 5.34 47.64 5 49 C-1.21166157 33.47084608 -2.49301529 16.51622627 0 0 Z " fill="#523B29" transform="translate(61,143)"/>
<path d="M0 0 C3.3 0 6.6 0 10 0 C10 2.97 10 5.94 10 9 C8.22950311 9.05410687 6.45853151 9.09284119 4.6875 9.125 C3.20830078 9.15980469 3.20830078 9.15980469 1.69921875 9.1953125 C-1 9 -1 9 -4 7 C-3.67 5.35 -3.34 3.7 -3 2 C-2.01 2 -1.02 2 0 2 C0 1.34 0 0.68 0 0 Z " fill="#645448" transform="translate(37,199)"/>
<path d="M0 0 C1.15884085 3.47652255 0.77936396 4.47004036 -0.3125 7.875 C-0.57675781 8.71804687 -0.84101562 9.56109375 -1.11328125 10.4296875 C-1.68752091 12.09422361 -2.30761672 13.74391773 -2.98046875 15.37109375 C-4.68838852 19.77504013 -5.77808693 24.35966022 -7 28.91796875 C-8 32 -8 32 -10 34 C-9.68650472 21.64828594 -9.24760577 9.24760577 0 0 Z " fill="#5D4A39" transform="translate(73,101)"/>
<path d="M0 0 C13.53 0 27.06 0 41 0 C41 0.33 41 0.66 41 1 C39.2984375 1.2165625 39.2984375 1.2165625 37.5625 1.4375 C34.19222799 1.61171478 34.19222799 1.61171478 33 3 C30.6243148 3.0883967 28.27791326 3.11530305 25.90234375 3.09765625 C24.83905602 3.09553383 24.83905602 3.09553383 23.75428772 3.09336853 C21.48198288 3.08775443 19.20977525 3.07519963 16.9375 3.0625 C15.40039204 3.05748681 13.86328255 3.05292359 12.32617188 3.04882812 C8.55074358 3.03778042 4.77538829 3.02050641 1 3 C0.67 2.01 0.34 1.02 0 0 Z " fill="#472E18" transform="translate(34,209)"/>
<path d="M0 0 C-1.11375 0.350625 -2.2275 0.70125 -3.375 1.0625 C-5.33181479 1.80330632 -5.33181479 1.80330632 -7 3 C-8.53045985 6.55892288 -8.53045985 6.55892288 -9 10 C-8.34 10 -7.68 10 -7 10 C-6.67 8.68 -6.34 7.36 -6 6 C-5.87625 6.639375 -5.7525 7.27875 -5.625 7.9375 C-5.41875 8.618125 -5.2125 9.29875 -5 10 C-2.70370006 11.14814997 -0.92301914 11.30769809 1.625 11.5625 C2.44226562 11.64628906 3.25953125 11.73007813 4.1015625 11.81640625 C4.72804688 11.87699219 5.35453125 11.93757812 6 12 C6.33 11.01 6.66 10.02 7 9 C7.33 10.32 7.66 11.64 8 13 C2.06 13.495 2.06 13.495 -4 14 C-4 14.66 -4 15.32 -4 16 C6.89 16 17.78 16 29 16 C29 16.33 29 16.66 29 17 C24.24949181 17.09913574 19.49959024 17.17159264 14.74829102 17.21972656 C13.13327542 17.23979892 11.51833211 17.2670633 9.90356445 17.30175781 C7.57745499 17.35047215 5.25230907 17.37301154 2.92578125 17.390625 C2.20787918 17.41127014 1.48997711 17.43191528 0.75032043 17.45318604 C-2.87908233 17.4547978 -4.86167517 17.08743335 -7.95825195 15.13012695 C-10 13 -10 13 -10.59375 10.52734375 C-10.5628125 9.67269531 -10.531875 8.81804687 -10.5 7.9375 C-10.4896875 7.08027344 -10.479375 6.22304687 -10.46875 5.33984375 C-9.91517335 2.57657365 -9.22480532 1.68434554 -7 0 C-3.86650268 -1.04449911 -3.01031744 -0.93423645 0 0 Z " fill="#7A695A" transform="translate(39,196)"/>
<path d="M0 0 C5.94 0 11.88 0 18 0 C18 1.32 18 2.64 18 4 C14.7 4 11.4 4 8 4 C8 5.65 8 7.3 8 9 C6.0625 9.5625 6.0625 9.5625 4 10 C3 9 3 9 2.9375 6.4375 C2.958125 5.633125 2.97875 4.82875 3 4 C2.01 4 1.02 4 0 4 C0 2.68 0 1.36 0 0 Z " fill="#40210C" transform="translate(140,48)"/>
<path d="M0 0 C0.79921875 0.00902344 1.5984375 0.01804688 2.421875 0.02734375 C3.02515625 0.03894531 3.6284375 0.05054688 4.25 0.0625 C4.58 1.7125 4.91 3.3625 5.25 5.0625 C3.27 5.0625 1.29 5.0625 -0.75 5.0625 C-0.75 6.7125 -0.75 8.3625 -0.75 10.0625 C-2.40614657 10.44468767 -4.07457024 10.77645102 -5.75 11.0625 C-6.75 10.0625 -6.75 10.0625 -6.8125 7.5 C-6.791875 6.695625 -6.77125 5.89125 -6.75 5.0625 C-7.41 5.0625 -8.07 5.0625 -8.75 5.0625 C-8.75 3.7425 -8.75 2.4225 -8.75 1.0625 C-5.75519083 0.1901588 -3.11424089 -0.04579766 0 0 Z " fill="#513522" transform="translate(190.75,45.9375)"/>
<path d="M0 0 C4.83915573 0.68987964 9.54468406 1.98792183 14 4 C13.67 2.68 13.34 1.36 13 0 C13.99 0.33 14.98 0.66 16 1 C15.67 2.65 15.34 4.3 15 6 C12.03 5.505 12.03 5.505 9 5 C9 6.32 9 7.64 9 9 C1.57142857 8 1.57142857 8 -2 7 C-1.125 1.125 -1.125 1.125 0 0 Z " fill="#A99280" transform="translate(112,45)"/>
<path d="M0 0 C0 0.33 0 0.66 0 1 C-1.3921875 1.433125 -1.3921875 1.433125 -2.8125 1.875 C-6.32359699 3.1142107 -8.42309863 4.00197774 -10.31640625 7.27734375 C-10.72761719 8.15519531 -11.13882813 9.03304688 -11.5625 9.9375 C-12.92086898 12.81081009 -14.2307279 15.34609185 -16 18 C-18.80435411 18.05632424 -21.35146678 17.95814702 -24.125 17.6875 C-25.25615234 17.5956543 -25.25615234 17.5956543 -26.41015625 17.50195312 C-28.27463438 17.3485467 -30.13752498 17.17606541 -32 17 C-32 16.67 -32 16.34 -32 16 C-27.38 15.67 -22.76 15.34 -18 15 C-17.4121875 13.4840625 -17.4121875 13.4840625 -16.8125 11.9375 C-13.22941064 3.58261865 -9.67895033 -1.82621704 0 0 Z " fill="#442A15" transform="translate(184,16)"/>
<path d="M0 0 C2.7053871 4.05808065 5 8.04889399 5 13 C5.66 13 6.32 13 7 13 C7 13.99 7 14.98 7 16 C-2.24 16 -11.48 16 -21 16 C-21 15.34 -21 14.68 -21 14 C-12.75 14 -4.5 14 4 14 C2.68 12.68 1.36 11.36 0 10 C-0.390625 7.421875 -0.390625 7.421875 -0.25 4.75 C-0.21390625 3.85796875 -0.1778125 2.9659375 -0.140625 2.046875 C-0.09421875 1.37140625 -0.0478125 0.6959375 0 0 Z " fill="#C6B8AC" transform="translate(61,179)"/>
<path d="M0 0 C0.99 0.495 0.99 0.495 2 1 C3.31304632 8.32085257 3.11328695 16.07339381 3.1875 23.5 C3.20055176 24.26497803 3.21360352 25.02995605 3.22705078 25.81811523 C3.23350228 29.99546226 2.8839806 33.24693193 1 37 C0.67 37 0.34 37 0 37 C0 24.79 0 12.58 0 0 Z " fill="#412A14" transform="translate(222,117)"/>
<path d="M0 0 C1.65 0 3.3 0 5 0 C6.17076699 3.98060777 7.25749403 7.91621717 8 12 C6.39125 11.7215625 6.39125 11.7215625 4.75 11.4375 C1.59608454 11.0695432 -0.09818492 10.95534657 -3 12 C-2.25749403 7.91621717 -1.17076699 3.98060777 0 0 Z " fill="#4E3623" transform="translate(168,48)"/>
<path d="M0 0 C0.66 0 1.32 0 2 0 C0.36362596 5.66437168 -1.167003 7.778002 -6 11 C-8.69921875 11.1953125 -8.69921875 11.1953125 -11.6875 11.125 C-13.17830078 11.09792969 -13.17830078 11.09792969 -14.69921875 11.0703125 C-15.45847656 11.04710937 -16.21773438 11.02390625 -17 11 C-17.5625 9.0625 -17.5625 9.0625 -18 7 C-17 6 -17 6 -13.62109375 5.90234375 C-12.22652923 5.90901631 -10.83198257 5.92097468 -9.4375 5.9375 C-8.72658203 5.94201172 -8.01566406 5.94652344 -7.28320312 5.95117188 C-5.52209987 5.96299136 -3.76103964 5.98092737 -2 6 C-1.34 4.02 -0.68 2.04 0 0 Z " fill="#7E6E62" transform="translate(113,33)"/>
<path d="M0 0 C0 3.3 0 6.6 0 10 C-0.33 10 -0.66 10 -1 10 C-1 7.69 -1 5.38 -1 3 C-1.99 3.495 -1.99 3.495 -3 4 C-2.79375 4.61875 -2.5875 5.2375 -2.375 5.875 C-2.25125 6.57625 -2.1275 7.2775 -2 8 C-2.66 8.66 -3.32 9.32 -4 10 C-7.625 9.625 -7.625 9.625 -11 9 C-11 6.36 -11 3.72 -11 1 C-9.35422741 0.83273455 -7.70838013 0.66620388 -6.0625 0.5 C-4.68771484 0.36078125 -4.68771484 0.36078125 -3.28515625 0.21875 C-1 0 -1 0 0 0 Z " fill="#60564A" transform="translate(100,198)"/>
<path d="M0 0 C0.33 1.32 0.66 2.64 1 4 C-3.62 4.33 -8.24 4.66 -13 5 C-12.4772134 10.50781062 -12.4772134 10.50781062 -10.875 15.75 C-9.8734586 18.32539218 -10.05597587 19.45113485 -11 22 C-11.99 21.67 -12.98 21.34 -14 21 C-14.33 20.01 -14.66 19.02 -15 18 C-15.66 17.67 -16.32 17.34 -17 17 C-17.08038183 13.46319951 -17.01766138 10.39220461 -16 7 C-15.67 5.68 -15.34 4.36 -15 3 C-10.05 3 -5.1 3 0 3 C0 2.01 0 1.02 0 0 Z " fill="#645042" transform="translate(224,50)"/>
<path d="M0 0 C0.33 0 0.66 0 1 0 C0.88570603 1.77155654 0.75816963 3.54226229 0.625 5.3125 C0.55539063 6.29863281 0.48578125 7.28476563 0.4140625 8.30078125 C0 11 0 11 -2 14 C-2.66 14 -3.32 14 -4 14 C-4 14.66 -4 15.32 -4 16 C-4.66 16 -5.32 16 -6 16 C-6.33 17.98 -6.66 19.96 -7 22 C-9.31 22.33 -11.62 22.66 -14 23 C-13.57847656 22.44570312 -13.15695313 21.89140625 -12.72265625 21.3203125 C-12.17480469 20.59585938 -11.62695312 19.87140625 -11.0625 19.125 C-10.51722656 18.40570313 -9.97195312 17.68640625 -9.41015625 16.9453125 C-7.96035376 15.05642921 -7.96035376 15.05642921 -7 13 C-6.34 13 -5.68 13 -5 13 C-4.01 9.7 -3.02 6.4 -2 3 C-1.34 3 -0.68 3 0 3 C0 2.01 0 1.02 0 0 Z " fill="#CCC1B9" transform="translate(221,177)"/>
<path d="M0 0 C0 1.32 0 2.64 0 4 C-5.94 4 -11.88 4 -18 4 C-18.33 2.68 -18.66 1.36 -19 0 C-16.58373582 -0.19534474 -14.16734771 -0.38153404 -11.75 -0.5625 C-11.06808594 -0.61857422 -10.38617188 -0.67464844 -9.68359375 -0.73242188 C-6.2579419 -0.98186254 -3.27298823 -1.13879745 0 0 Z " fill="#CFC8C5" transform="translate(224,46)"/>
<path d="M0 0 C1.67642578 0.01353516 1.67642578 0.01353516 3.38671875 0.02734375 C6.13303462 0.05081654 8.87890472 0.08365272 11.625 0.125 C11.625 0.455 11.625 0.785 11.625 1.125 C4.035 1.455 -3.555 1.785 -11.375 2.125 C-9.065 2.455 -6.755 2.785 -4.375 3.125 C-4.375 3.455 -4.375 3.785 -4.375 4.125 C-7.675 4.125 -10.975 4.125 -14.375 4.125 C-14.375 4.785 -14.375 5.445 -14.375 6.125 C-16.025 6.455 -17.675 6.785 -19.375 7.125 C-19.375 8.445 -19.375 9.765 -19.375 11.125 C-20.035 11.125 -20.695 11.125 -21.375 11.125 C-21.73741611 5.68875839 -21.73741611 5.68875839 -20.25 3.375 C-14.03605323 -0.76763118 -7.15747432 -0.10959619 0 0 Z " fill="#4E3825" transform="translate(51.375,194.875)"/>
<path d="M0 0 C2.29933571 6.89800714 -4.45709147 16.22170966 -7.4375 22.43359375 C-9.03104141 25.05098552 -10.43661278 26.37026028 -13 28 C-12.67 26.02 -12.34 24.04 -12 22 C-11.34 22 -10.68 22 -10 22 C-10 21.34 -10 20.68 -10 20 C-9.34 20 -8.68 20 -8 20 C-6.68 14.39 -5.36 8.78 -4 3 C-2.68 2.67 -1.36 2.34 0 2 C0 1.34 0 0.68 0 0 Z " fill="#EDE9E5" transform="translate(227,171)"/>
<path d="M0 0 C0.33 0 0.66 0 1 0 C0.67 3.3 0.34 6.6 0 10 C0.66 10 1.32 10 2 10 C2.33 9.01 2.66 8.02 3 7 C2.67 9.31 2.34 11.62 2 14 C1.34 14 0.68 14 0 14 C-0.433125 15.918125 -0.433125 15.918125 -0.875 17.875 C-1.54102483 20.82453855 -1.80202597 21.80202597 -4 24 C-4.33 23.01 -4.66 22.02 -5 21 C-5.66 21.33 -6.32 21.66 -7 22 C-6.69658691 21.42926758 -6.39317383 20.85853516 -6.08056641 20.27050781 C-5.03535357 18.07428562 -4.34701278 16.01531026 -3.7109375 13.671875 C-3.49179688 12.87265625 -3.27265625 12.0734375 -3.046875 11.25 C-2.71429688 10.0125 -2.71429688 10.0125 -2.375 8.75 C-2.14554688 7.90953125 -1.91609375 7.0690625 -1.6796875 6.203125 C-1.11604475 4.13643491 -0.55751838 2.06835064 0 0 Z " fill="#67503F" transform="translate(219,166)"/>
<path d="M0 0 C0.33 1.32 0.66 2.64 1 4 C1.66 4 2.32 4 3 4 C2.34 6.31 1.68 8.62 1 11 C1.82725586 10.98952637 2.65451172 10.97905273 3.50683594 10.96826172 C7.2545264 10.92669088 11.00216832 10.90067008 14.75 10.875 C16.05195312 10.85824219 17.35390625 10.84148437 18.6953125 10.82421875 C19.94570312 10.81777344 21.19609375 10.81132813 22.484375 10.8046875 C23.63647461 10.79421387 24.78857422 10.78374023 25.97558594 10.77294922 C29 11 29 11 33 13 C22.11 12.67 11.22 12.34 0 12 C-0.33 10.35 -0.66 8.7 -1 7 C-1.99 7.66 -2.98 8.32 -4 9 C-2.94124926 5.59687262 -1.99097846 2.98646769 0 0 Z " fill="#887768" transform="translate(74,95)"/>
<path d="M0 0 C0.33 0 0.66 0 1 0 C1 2.64 1 5.28 1 8 C-3.75 7.125 -3.75 7.125 -6 6 C-6 6.99 -6 7.98 -6 9 C-7.65 9 -9.3 9 -11 9 C-11.33 7.02 -11.66 5.04 -12 3 C-8.04 3 -4.08 3 0 3 C0 2.01 0 1.02 0 0 Z " fill="#726355" transform="translate(168,32)"/>
<path d="M0 0 C2.8125 0.625 2.8125 0.625 6 2 C7.03432904 3.98246398 8.03238392 5.98413316 9 8 C10.051875 8.639375 11.10375 9.27875 12.1875 9.9375 C13.115625 10.618125 14.04375 11.29875 15 12 C15.375 15.75 15.375 15.75 15 19 C15.66 19 16.32 19 17 19 C17.33 19.99 17.66 20.98 18 22 C17.01 22 16.02 22 15 22 C13.640625 20.12890625 13.640625 20.12890625 12.25 17.5625 C9.66776223 13.01776152 6.79205215 8.97617283 3.515625 4.91015625 C2 3 2 3 0 0 Z " fill="#F0E6DD" transform="translate(185,14)"/>
<path d="M0 0 C0.66 0 1.32 0 2 0 C6.08399091 10.86420883 7.12907613 21.50609679 8 33 C7.34 33 6.68 33 6 33 C3.91523766 22.01433746 1.92221599 11.01525193 0 0 Z " fill="#C6B8AD" transform="translate(216,75)"/>
<path d="M0 0 C0.99 0 1.98 0 3 0 C3 2.31 3 4.62 3 7 C1.35 7.33 -0.3 7.66 -2 8 C-2 8.66 -2 9.32 -2 10 C-3.6396875 10.2165625 -3.6396875 10.2165625 -5.3125 10.4375 C-8.93122987 10.88288104 -8.93122987 10.88288104 -12 12 C-12.33 10.35 -12.66 8.7 -13 7 C-8.71 6.34 -4.42 5.68 0 5 C0 3.35 0 1.7 0 0 Z " fill="#E9E7E6" transform="translate(224,49)"/>
<path d="M0 0 C3.96 0 7.92 0 12 0 C12 0.33 12 0.66 12 1 C8.7 1 5.4 1 2 1 C2.33 3.31 2.66 5.62 3 8 C5.97 8.495 5.97 8.495 9 9 C9.66 7.68 10.32 6.36 11 5 C10.34 4.67 9.68 4.34 9 4 C9.99 3.67 10.98 3.34 12 3 C12.33 5.64 12.66 8.28 13 11 C8.71 11 4.42 11 0 11 C0 7.37 0 3.74 0 0 Z " fill="#5E4E3D" transform="translate(87,198)"/>
<path d="M0 0 C0.69140625 1.7109375 0.69140625 1.7109375 1 4 C-1.50880134 8.6969891 -4.58260769 12.35573077 -9.4375 14.5625 C-10.283125 14.706875 -11.12875 14.85125 -12 15 C-9.832705 11.10728568 -7.32586971 7.96290186 -4.3125 4.6875 C-3.50425781 3.80449219 -2.69601563 2.92148438 -1.86328125 2.01171875 C-1.24839844 1.34785156 -0.63351563 0.68398437 0 0 Z " fill="#4E3725" transform="translate(214,186)"/>
<path d="M0 0 C0.66 0 1.32 0 2 0 C5.32270836 7.06075526 5.31806054 13.2723068 5 21 C1.32469312 17.25420779 1.2622925 13.22660324 0.8125 8.25 C0.73064453 7.45722656 0.64878906 6.66445312 0.56445312 5.84765625 C0.36494997 3.89956666 0.18094062 1.94990129 0 0 Z " fill="#533E2E" transform="translate(216,87)"/>
<path d="M0 0 C0.33 0 0.66 0 1 0 C1.9957834 4.25471089 2.2533096 6.82179754 0.5625 10.875 C-1.64895393 17.14904344 -1.56484947 23.47091005 -1.6875 30.0625 C-1.72166016 31.30966797 -1.75582031 32.55683594 -1.79101562 33.84179688 C-1.87288731 36.89444127 -1.94223628 39.94682034 -2 43 C-2.33 43 -2.66 43 -3 43 C-3.07558065 39.12639496 -3.1292563 35.25308994 -3.16479492 31.37890625 C-3.18685261 29.43213762 -3.22501918 27.48557235 -3.26367188 25.5390625 C-3.33238265 16.56085504 -2.23695491 8.6838573 0 0 Z " fill="#947D6C" transform="translate(66,125)"/>
<path d="M0 0 C-0.33 0.66 -0.66 1.32 -1 2 C-1.99 2.33 -2.98 2.66 -4 3 C-3.67 3.66 -3.34 4.32 -3 5 C-13.37357631 8.44419134 -13.37357631 8.44419134 -19 8 C-18.67 7.34 -18.34 6.68 -18 6 C-15.67843403 5.59270772 -13.3431213 5.25561323 -11 5 C-11 4.34 -11 3.68 -11 3 C-9.35 2.67 -7.7 2.34 -6 2 C-6 1.34 -6 0.68 -6 0 C-2.25 -1.125 -2.25 -1.125 0 0 Z " fill="#EAEBEB" transform="translate(205,206)"/>
<path d="M0 0 C1.16110175 3.48330526 0.77231701 4.51852696 -0.3125 7.9375 C-0.57675781 8.79214844 -0.84101562 9.64679688 -1.11328125 10.52734375 C-1.9398853 12.83236738 -2.7096011 14.91765954 -4 17 C-4.99 17.33 -5.98 17.66 -7 18 C-6.67 17.13375 -6.34 16.2675 -6 15.375 C-4.82108308 12.10519503 -4.82108308 12.10519503 -5.1875 9 C-4.91601295 4.65620721 -2.95919494 3.10715469 0 0 Z " fill="#4C3622" transform="translate(73,101)"/>
<path d="M0 0 C1 3 1 3 0.109375 5.2265625 C-0.33921875 6.01804687 -0.7878125 6.80953125 -1.25 7.625 C-1.68828125 8.42164062 -2.1265625 9.21828125 -2.578125 10.0390625 C-4 12 -4 12 -7 13 C-7.36490009 6.67506516 -7.36490009 6.67506516 -5.75 3.6875 C-3.93507635 1.93739505 -2.32057419 0.9602376 0 0 Z " fill="#5F4A39" transform="translate(82,86)"/>
<path d="M0 0 C-0.75 4.75 -0.75 4.75 -3 7 C-3.28875 7.825 -3.5775 8.65 -3.875 9.5 C-5 12 -5 12 -7.125 13.3125 C-8.053125 13.6528125 -8.053125 13.6528125 -9 14 C-9.61864044 8.89621634 -7.7379938 6.14610489 -5 2 C-2 0 -2 0 0 0 Z " fill="#462F1C" transform="translate(93,71)"/>
<path d="M0 0 C5.28 0.66 10.56 1.32 16 2 C16 2.99 16 3.98 16 5 C9.93107371 5.25287193 4.83799592 4.69832609 -1 3 C-0.67 2.01 -0.34 1.02 0 0 Z " fill="#3F2514" transform="translate(107,52)"/>
<path d="M0 0 C4.29 0.33 8.58 0.66 13 1 C12.04065919 4.83736322 11.76390737 5.59660228 9 8 C9 6.68 9 5.36 9 4 C6.36 4 3.72 4 1 4 C0.67 2.68 0.34 1.36 0 0 Z " fill="#E7DDD5" transform="translate(95,43)"/>
<path d="M0 0 C-0.33 0.66 -0.66 1.32 -1 2 C-6.77845491 3.84446217 -11.96969157 4.26086483 -18 4.125 C-19.16208984 4.11146484 -19.16208984 4.11146484 -20.34765625 4.09765625 C-22.23190843 4.07439388 -24.11599832 4.0385364 -26 4 C-26 3.67 -26 3.34 -26 3 C-22.04 3 -18.08 3 -14 3 C-14 2.34 -14 1.68 -14 1 C-4.58997722 -0.14806378 -4.58997722 -0.14806378 0 0 Z " fill="#C9C2BC" transform="translate(183,211)"/>
<path d="M0 0 C0 3.9629528 -1.245752 7.38888645 -2.4375 11.125 C-2.66759766 11.86621094 -2.89769531 12.60742188 -3.13476562 13.37109375 C-4.86836615 18.86836615 -4.86836615 18.86836615 -6 20 C-6.36760731 22.32817964 -6.70241581 24.6618385 -7 27 C-7.33 27 -7.66 27 -8 27 C-8.33050781 20.16950529 -7.62376027 14.36683111 -5 8 C-4.34 7.34 -3.68 6.68 -3 6 C-2.835 5.154375 -2.67 4.30875 -2.5 3.4375 C-2.335 2.633125 -2.17 1.82875 -2 1 C-1.34 0.67 -0.68 0.34 0 0 Z " fill="#DDD4C7" transform="translate(69,104)"/>
<path d="M0 0 C0.66 0.33 1.32 0.66 2 1 C1.67 1.99 1.34 2.98 1 4 C-1.31 4.33 -3.62 4.66 -6 5 C-6 5.66 -6 6.32 -6 7 C-7.65 7.33 -9.3 7.66 -11 8 C-11 8.66 -11 9.32 -11 10 C-13.97 10 -16.94 10 -20 10 C-16.99895182 8.49947591 -14.90648893 7.61151408 -11.75 6.875 C-10.5125 6.58625 -9.275 6.2975 -8 6 C-8 5.34 -8 4.68 -8 4 C-6.71349294 3.30289269 -5.42059335 2.61757124 -4.125 1.9375 C-3.40570313 1.55464844 -2.68640625 1.17179688 -1.9453125 0.77734375 C-0.98238281 0.39255859 -0.98238281 0.39255859 0 0 Z " fill="#B8ABA0" transform="translate(205,201)"/>
<path d="M0 0 C5.94 0 11.88 0 18 0 C18 1.32 18 2.64 18 4 C15.03 4 12.06 4 9 4 C9 3.67 9 3.34 9 3 C11.64 3 14.28 3 17 3 C17 2.34 17 1.68 17 1 C11.72 1 6.44 1 1 1 C1 1.66 1 2.32 1 3 C2.32 2.67 3.64 2.34 5 2 C4.67 4.31 4.34 6.62 4 9 C3.67 9 3.34 9 3 9 C3 7.35 3 5.7 3 4 C2.01 4 1.02 4 0 4 C0 2.68 0 1.36 0 0 Z " fill="#563E2E" transform="translate(140,48)"/>
<path d="M0 0 C0 0.66 0 1.32 0 2 C-0.90363281 2.20496094 -1.80726563 2.40992188 -2.73828125 2.62109375 C-3.91777344 2.89050781 -5.09726563 3.15992188 -6.3125 3.4375 C-7.48425781 3.70433594 -8.65601563 3.97117188 -9.86328125 4.24609375 C-13.00236971 4.95313969 -13.00236971 4.95313969 -16 6 C-16 4.68 -16 3.36 -16 2 C-10.51324804 0.13216954 -5.77807024 -0.2358396 0 0 Z " fill="#533B2A" transform="translate(222,40)"/>
<path d="M0 0 C0.33 0.66 0.66 1.32 1 2 C0.67 2.66 0.34 3.32 0 4 C0.66 4 1.32 4 2 4 C0.92289822 8.30840713 -0.03947516 11.63576723 -3 15 C-4.1484375 12.83203125 -4.1484375 12.83203125 -5 10 C-4.1015625 7.32421875 -4.1015625 7.32421875 -2.625 4.6875 C-2.14289063 3.80449219 -1.66078125 2.92148437 -1.1640625 2.01171875 C-0.77992187 1.34785156 -0.39578125 0.68398438 0 0 Z " fill="#634D3E" transform="translate(120,21)"/>
<path d="M0 0 C2.00720923 0.28674418 4.0085944 0.61866701 6 1 C6.33 1.99 6.66 2.98 7 4 C4.23776722 6.76223278 1.79293383 6.57856291 -2 7 C-1.125 1.125 -1.125 1.125 0 0 Z " fill="#B19F8E" transform="translate(112,45)"/>
<path d="M0 0 C3.85109293 0.0497718 5.60504347 0.76023492 8.3125 3.5 C9.116875 4.49 9.92125 5.48 10.75 6.5 C10.42 7.16 10.09 7.82 9.75 8.5 C9.09 7.84 8.43 7.18 7.75 6.5 C6.76 6.995 6.76 6.995 5.75 7.5 C4.39567325 6.18799596 3.06266518 4.85368596 1.75 3.5 C1.75 3.17 1.75 2.84 1.75 2.5 C0.986875 2.5 0.22375 2.5 -0.5625 2.5 C-2.45833333 2.5 -4.35416667 2.5 -6.25 2.5 C-3.90255083 0.15255083 -3.21722027 0.13131511 0 0 Z " fill="#6D5948" transform="translate(180.25,13.5)"/>
<path d="M0 0 C3.63 0 7.26 0 11 0 C9.375 6.75 9.375 6.75 6 9 C6.33 6.69 6.66 4.38 7 2 C4.36 2 1.72 2 -1 2 C-0.67 1.34 -0.34 0.68 0 0 Z " fill="#432C19" transform="translate(94,53)"/>
<path d="M0 0 C1.85329634 2.77994451 2.68563605 4.78256551 3.625 7.9375 C3.88539063 8.79214844 4.14578125 9.64679688 4.4140625 10.52734375 C5 13 5 13 5 17 C4.01 17.33 3.02 17.66 2 18 C0.176679 11.84629161 -0.2361959 6.40353322 0 0 Z M2 10 C3 14 3 14 3 14 Z " fill="#A38975" transform="translate(209,68)"/>
<path d="M0 0 C2.31 0 4.62 0 7 0 C7 1.65 7 3.3 7 5 C1.06 5.495 1.06 5.495 -5 6 C-5 5.34 -5 4.68 -5 4 C-2.36 3.34 0.28 2.68 3 2 C2.01 1.34 1.02 0.68 0 0 Z " fill="#F1E9E1" transform="translate(97,47)"/>
<path d="M0 0 C3.94477066 2.62984711 4.02667201 4.43284559 5 9 C5.07403678 11.33215844 5.09515886 13.66860788 5 16 C4.34 16 3.68 16 3 16 C2.49411853 14.08487728 1.99551609 12.16783078 1.5 10.25 C1.2215625 9.18265625 0.943125 8.1153125 0.65625 7.015625 C0 4 0 4 0 0 Z " fill="#412917" transform="translate(211,70)"/>
<path d="M0 0 C2.31 0 4.62 0 7 0 C6.60196439 2.88575819 6.20990931 3.82189513 3.9375 5.75 C3.298125 6.1625 2.65875 6.575 2 7 C0.5393715 4.35261084 0 3.10551666 0 0 Z " fill="#E2DDD7" transform="translate(92,57)"/>
<path d="M0 0 C2.64 0 5.28 0 8 0 C7.01 0.495 7.01 0.495 6 1 C6 2.65 6 4.3 6 6 C4.35 5.67 2.7 5.34 1 5 C0.67 3.35 0.34 1.7 0 0 Z " fill="#645244" transform="translate(147,34)"/>
<path d="M0 0 C0.33 0 0.66 0 1 0 C0.67 2.97 0.34 5.94 0 9 C-2.31 9.33 -4.62 9.66 -7 10 C-6.57847656 9.44570312 -6.15695313 8.89140625 -5.72265625 8.3203125 C-5.17480469 7.59585938 -4.62695312 6.87140625 -4.0625 6.125 C-3.51722656 5.40570313 -2.97195312 4.68640625 -2.41015625 3.9453125 C-0.96035376 2.05642921 -0.96035376 2.05642921 0 0 Z " fill="#B9ADA3" transform="translate(214,190)"/>
<path d="M0 0 C0 0.99 0 1.98 0 3 C0.061875 3.825 0.12375 4.65 0.1875 5.5 C0 8 0 8 -1.5 9.8125 C-1.995 10.204375 -2.49 10.59625 -3 11 C-3 10.34 -3 9.68 -3 9 C-4.98 9.99 -4.98 9.99 -7 11 C-5.5140084 6.40693504 -3.14985318 3.56430755 0 0 Z " fill="#746457" transform="translate(96,62)"/>
<path d="M0 0 C1.22602512 3.67807537 0.70295577 5.88243927 0.0625 9.6875 C-0.13214844 10.86699219 -0.32679688 12.04648438 -0.52734375 13.26171875 C-0.68332031 14.16535156 -0.83929688 15.06898438 -1 16 C-1.66 16 -2.32 16 -3 16 C-2.57910004 10.39538469 -2.08386889 5.27913453 0 0 Z " fill="#442914" transform="translate(222,160)"/>
<path d="M0 0 C0.66 0.33 1.32 0.66 2 1 C1.34 1.66 0.68 2.32 0 3 C0.061875 3.804375 0.12375 4.60875 0.1875 5.4375 C0.125625 6.283125 0.06375 7.12875 0 8 C-2.5 9.8125 -2.5 9.8125 -5 11 C-5 6.8267989 -3.00903153 3.00903153 0 0 Z " fill="#A99484" transform="translate(127,18)"/>
<path d="M0 0 C0.99 0 1.98 0 3 0 C3.33 2.64 3.66 5.28 4 8 C-0.29 8 -4.58 8 -9 8 C-9 7.67 -9 7.34 -9 7 C-5.7 6.67 -2.4 6.34 1 6 C0.835 5.195625 0.67 4.39125 0.5 3.5625 C0 1 0 1 0 0 Z " fill="#5C4D3F" transform="translate(70,201)"/>
<path d="M0 0 C1.25127906 3.54667178 0.72285053 5.72253438 -0.4375 9.25 C-0.72496094 10.14203125 -1.01242188 11.0340625 -1.30859375 11.953125 C-1.53675781 12.62859375 -1.76492187 13.3040625 -2 14 C-2.33 14 -2.66 14 -3 14 C-3.28999065 5.44527596 -3.28999065 5.44527596 -1 1 C-0.67 0.67 -0.34 0.34 0 0 Z " fill="#432B17" transform="translate(66,121)"/>
<path d="M0 0 C4.455 0.99 4.455 0.99 9 2 C9 2.66 9 3.32 9 4 C5.37 4.33 1.74 4.66 -2 5 C-1.34 3.35 -0.68 1.7 0 0 Z " fill="#5C4F43" transform="translate(80,93)"/>
<path d="M0 0 C0.33 1.32 0.66 2.64 1 4 C-0.48113281 4.03867187 -0.48113281 4.03867187 -1.9921875 4.078125 C-3.27351562 4.13484375 -4.55484375 4.1915625 -5.875 4.25 C-7.15117187 4.29640625 -8.42734375 4.3428125 -9.7421875 4.390625 C-13.09188105 4.62555056 -13.09188105 4.62555056 -14.4453125 7.046875 C-14.62835938 7.69140625 -14.81140625 8.3359375 -15 9 C-15.38218767 7.34385343 -15.71395102 5.67542976 -16 4 C-15 3 -15 3 -11.62109375 2.90234375 C-10.22652923 2.90901631 -8.83198257 2.92097468 -7.4375 2.9375 C-6.72658203 2.94201172 -6.01566406 2.94652344 -5.28320312 2.95117188 C-3.52209987 2.96299136 -1.76103964 2.98092737 0 3 C0 2.01 0 1.02 0 0 Z " fill="#928274" transform="translate(224,50)"/>
<path d="M0 0 C0.66 0 1.32 0 2 0 C1.67 1.65 1.34 3.3 1 5 C-4.28 4.67 -9.56 4.34 -15 4 C-15 3.67 -15 3.34 -15 3 C-14.00097656 2.95101563 -13.00195312 2.90203125 -11.97265625 2.8515625 C-10.68230469 2.77679687 -9.39195312 2.70203125 -8.0625 2.625 C-6.77472656 2.55539063 -5.48695313 2.48578125 -4.16015625 2.4140625 C-3.11730469 2.27742188 -2.07445312 2.14078125 -1 2 C-0.67 1.34 -0.34 0.68 0 0 Z " fill="#3E2818" transform="translate(167,29)"/>
<path d="M0 0 C2.475 0.495 2.475 0.495 5 1 C5.625 2.875 5.625 2.875 6 5 C5.34 5.66 4.68 6.32 4 7 C1 5 1 5 0.3125 2.375 C0.209375 1.59125 0.10625 0.8075 0 0 Z " fill="#574538" transform="translate(141,26)"/>
<path d="M0 0 C0.33 0.66 0.66 1.32 1 2 C1.66 2.33 2.32 2.66 3 3 C1.68 5.31 0.36 7.62 -1 10 C-1.33 9.34 -1.66 8.68 -2 8 C-2.66 8 -3.32 8 -4 8 C-2.87548273 5.0280615 -1.77706209 2.66559313 0 0 Z " fill="#4F3929" transform="translate(171,21)"/>
<path d="M0 0 C1.65 0 3.3 0 5 0 C5.6875 2.8125 5.6875 2.8125 6 6 C4.6875 7.875 4.6875 7.875 3 9 C2.34 9 1.68 9 1 9 C1.20625 7.88625 1.4125 6.7725 1.625 5.625 C1.74875 4.42875 1.8725 3.2325 2 2 C1.34 1.34 0.68 0.68 0 0 Z " fill="#4E311E" transform="translate(105,42)"/>
<path d="M0 0 C0.66 1.32 1.32 2.64 2 4 C1.01 3.67 0.02 3.34 -1 3 C-0.67 3.99 -0.34 4.98 0 6 C-1.65 7.32 -3.3 8.64 -5 10 C-5.66 9.67 -6.32 9.34 -7 9 C-4.69 6.03 -2.38 3.06 0 0 Z " fill="#A89585" transform="translate(99,65)"/>
<path d="M0 0 C2 3 2 3 1.875 5.0625 C0.7413007 7.57283417 -0.48618938 8.02691202 -3 9 C-3.26218749 5.85375007 -3.24754367 4.38162983 -1.5 1.6875 C-1.005 1.130625 -0.51 0.57375 0 0 Z " fill="#4E3826" transform="translate(87,76)"/>
<path d="M0 0 C1.45922693 0.11409593 2.91740598 0.24165544 4.375 0.375 C5.59316406 0.47941406 5.59316406 0.47941406 6.8359375 0.5859375 C9 1 9 1 11 3 C9.3603125 3.2165625 9.3603125 3.2165625 7.6875 3.4375 C4.06877013 3.88288104 4.06877013 3.88288104 1 5 C0.67 3.35 0.34 1.7 0 0 Z " fill="#EEF0F2" transform="translate(211,56)"/>
<path d="M0 0 C7.5 -0.375 7.5 -0.375 12 3 C7.71 3 3.42 3 -1 3 C-0.67 2.01 -0.34 1.02 0 0 Z " fill="#DEDBDB" transform="translate(208,46)"/>
<path d="M0 0 C4.04154489 0.89812109 5.61207717 1.41185893 7.9375 4.9375 C9 8 9 8 8 11 C7.0406581 9.72992786 6.08256706 8.45891081 5.125 7.1875 C4.59132812 6.47980469 4.05765625 5.77210937 3.5078125 5.04296875 C2.29185219 3.39543703 1.13583859 1.70375789 0 0 Z " fill="#DDD3C9" transform="translate(185,14)"/>
<path d="M0 0 C2.97 0.495 2.97 0.495 6 1 C2.9315153 3.97550031 1.53763669 4.96474513 -2.8125 5.25 C-3.864375 5.1675 -4.91625 5.085 -6 5 C-5.67 4.34 -5.34 3.68 -5 3 C-2.4375 2.375 -2.4375 2.375 0 2 C0 1.34 0 0.68 0 0 Z " fill="#5C4331" transform="translate(201,199)"/>
<path d="M0 0 C0.66 0 1.32 0 2 0 C3.00496852 3.01490557 3.10335303 5.04181692 3.0625 8.1875 C3.05347656 9.08855469 3.04445312 9.98960938 3.03515625 10.91796875 C3.02355469 11.60503906 3.01195312 12.29210937 3 13 C2.67 13 2.34 13 2 13 C0.54815522 8.46298506 -0.23509196 4.81938524 0 0 Z " fill="#EBE2E0" transform="translate(224,104)"/>
<path d="M0 0 C0.33 0.66 0.66 1.32 1 2 C3.97 2 6.94 2 10 2 C10 2.33 10 2.66 10 3 C7.03 3 4.06 3 1 3 C1 3.66 1 4.32 1 5 C1.99 4.67 2.98 4.34 4 4 C4.33 4.66 4.66 5.32 5 6 C3.02 6.33 1.04 6.66 -1 7 C-0.67 4.69 -0.34 2.38 0 0 Z " fill="#706359" transform="translate(89,78)"/>
<path d="M0 0 C1.65 0 3.3 0 5 0 C5 1.65 5 3.3 5 5 C3.35 4.67 1.7 4.34 0 4 C0 2.68 0 1.36 0 0 Z " fill="#625342" transform="translate(156,35)"/>
<path d="M0 0 C0.99 0.33 1.98 0.66 3 1 C2.21516341 2.48280196 1.42190666 3.9611498 0.625 5.4375 C0.18414062 6.26121094 -0.25671875 7.08492188 -0.7109375 7.93359375 C-2 10 -2 10 -4 11 C-3.5247412 9.35303396 -3.04468109 7.70745272 -2.5625 6.0625 C-2.29566406 5.14597656 -2.02882813 4.22945313 -1.75390625 3.28515625 C-1 1 -1 1 0 0 Z " fill="#CABBB1" transform="translate(86,72)"/>
<path d="M0 0 C5.75 0.75 5.75 0.75 8 3 C8 3.99 8 4.98 8 6 C6.35 5.67 4.7 5.34 3 5 C2.87625 4.360625 2.7525 3.72125 2.625 3.0625 C2.315625 2.0415625 2.315625 2.0415625 2 1 C1.34 0.67 0.68 0.34 0 0 Z " fill="#4B3528" transform="translate(118,43)"/>
<path d="M0 0 C3 2 3 2 3.6875 4.625 C3.790625 5.40875 3.89375 6.1925 4 7 C3.01 6.67 2.02 6.34 1 6 C0.67 6.99 0.34 7.98 0 9 C-0.66 7.35 -1.32 5.7 -2 4 C-1.34 4 -0.68 4 0 4 C0 2.68 0 1.36 0 0 Z " fill="#745D4D" transform="translate(195,28)"/>
<path d="M0 0 C3.08089673 2.77280706 4.68775452 5.06326356 6 9 C5.01 9 4.02 9 3 9 C0.50022457 5.66696609 0 4.26696398 0 0 Z " fill="#A89583" transform="translate(185,20)"/>
<path d="M0 0 C-1 2 -1 2 -3.28515625 2.8515625 C-4.65994141 3.23441406 -4.65994141 3.23441406 -6.0625 3.625 C-6.98160156 3.88539063 -7.90070313 4.14578125 -8.84765625 4.4140625 C-9.55792969 4.60742188 -10.26820313 4.80078125 -11 5 C-11 4.34 -11 3.68 -11 3 C-9.35 2.67 -7.7 2.34 -6 2 C-6 1.34 -6 0.68 -6 0 C-2.25 -1.125 -2.25 -1.125 0 0 Z " fill="#E0DCD9" transform="translate(205,206)"/>
<path d="M0 0 C1.23593891 3.70781672 0.5678132 4.67510253 -0.9375 8.1875 C-1.31777344 9.08855469 -1.69804687 9.98960937 -2.08984375 10.91796875 C-2.54037109 11.94857422 -2.54037109 11.94857422 -3 13 C-4.31538327 8.84228506 -3.34433068 6.1120703 -2 2 C-1.34 2 -0.68 2 0 2 C0 1.34 0 0.68 0 0 Z " fill="#EFF1F4" transform="translate(227,171)"/>
<path d="M0 0 C0.99 0.66 1.98 1.32 3 2 C3 2.66 3 3.32 3 4 C2.34 4 1.68 4 1 4 C0.67 4.66 0.34 5.32 0 6 C-1.32 6 -2.64 6 -4 6 C-2.25 1.125 -2.25 1.125 0 0 Z " fill="#65533C" transform="translate(83,82)"/>
<path d="M0 0 C0.99 0.66 1.98 1.32 3 2 C1.68 2 0.36 2 -1 2 C-1 2.66 -1 3.32 -1 4 C-1.66 4 -2.32 4 -3 4 C-3.33 3.34 -3.66 2.68 -4 2 C-6.02463255 1.34786708 -6.02463255 1.34786708 -8 1 C-4.93240944 -0.8624657 -3.38040761 -1.30854488 0 0 Z " fill="#A79383" transform="translate(173,59)"/>
<path d="M0 0 C0.66 0 1.32 0 2 0 C0.87548273 2.9719385 -0.22293791 5.33440687 -2 8 C-2.66 7.67 -3.32 7.34 -4 7 C-2.92598892 4.08482708 -2.22189824 2.22189824 0 0 Z " fill="#492F1D" transform="translate(124,18)"/>
<path d="M0 0 C2.0625 0.4375 2.0625 0.4375 4 1 C3.67 1.66 3.34 2.32 3 3 C2.34 3 1.68 3 1 3 C1 4.65 1 6.3 1 8 C0.34 7.67 -0.32 7.34 -1 7 C-1.04254356 5.00045254 -1.04080783 2.99958364 -1 1 C-0.67 0.67 -0.34 0.34 0 0 Z " fill="#45270F" transform="translate(203,43)"/>
<path d="M0 0 C0.99 0 1.98 0 3 0 C3.33 1.65 3.66 3.3 4 5 C4.66 5 5.32 5 6 5 C5.67 5.99 5.34 6.98 5 8 C4.34 6.68 3.68 5.36 3 4 C2.01 4 1.02 4 0 4 C0 2.68 0 1.36 0 0 Z " fill="#BCABA4" transform="translate(156,43)"/>
<path d="M0 0 C0.99 0 1.98 0 3 0 C3.33 1.65 3.66 3.3 4 5 C-0.455 5.495 -0.455 5.495 -5 6 C-4.67 5.34 -4.34 4.68 -4 4 C-2.02 4.495 -2.02 4.495 0 5 C0 3.35 0 1.7 0 0 Z " fill="#938477" transform="translate(153,35)"/>
<path d="M0 0 C0 3.39593478 -0.52165948 4.06619881 -2.5 6.6875 C-2.9640625 7.31011719 -3.428125 7.93273437 -3.90625 8.57421875 C-4.2671875 9.04472656 -4.628125 9.51523437 -5 10 C-6 8 -6 8 -5.875 5.5625 C-5 3 -5 3 -2.4375 1.1875 C-1.633125 0.795625 -0.82875 0.40375 0 0 Z " fill="#BFB1A6" transform="translate(173,17)"/>
<path d="M0 0 C0.33 0 0.66 0 1 0 C1 2.64 1 5.28 1 8 C0.01 8 -0.98 8 -2 8 C-1.125 1.125 -1.125 1.125 0 0 Z " fill="#EDE1DC" transform="translate(28,200)"/>
<path d="M0 0 C-1.50663783 3.01327566 -4.03166411 3.61056618 -7 5 C-6.625 2.5625 -6.625 2.5625 -6 0 C-3.50907189 -1.24546405 -2.58919267 -0.7767578 0 0 Z " fill="#E0DDDA" transform="translate(213,200)"/>
<path d="M0 0 C1 3 1 3 0.25 5.625 C-1 8 -1 8 -4 9 C-4 8.34 -4 7.68 -4 7 C-3.34 7 -2.68 7 -2 7 C-2.226875 6.401875 -2.45375 5.80375 -2.6875 5.1875 C-2.790625 4.465625 -2.89375 3.74375 -3 3 C-1.5625 1.25 -1.5625 1.25 0 0 Z " fill="#482E18" transform="translate(73,101)"/>
<path d="M0 0 C1.98 0 3.96 0 6 0 C5.43628586 3.26954202 4.50037734 4.82575883 2 7 C2.04125 6.21625 2.0825 5.4325 2.125 4.625 C2.28728734 1.83883881 2.28728734 1.83883881 0 0 Z " fill="#BDACA3" transform="translate(102,44)"/>
<path d="M0 0 C0.66 0 1.32 0 2 0 C3.1577506 3.47325181 3.06866652 6.36067448 3 10 C-0.00617269 6.99382731 0.40414684 4.17618402 0 0 Z " fill="#3F2918" transform="translate(216,87)"/>
<path d="M0 0 C2.64 0.66 5.28 1.32 8 2 C6 4 6 4 2.875 4.125 C1.451875 4.063125 1.451875 4.063125 0 4 C0 2.68 0 1.36 0 0 Z " fill="#F1E6DF" transform="translate(203,37)"/>
<path d="M0 0 C0.33 0.99 0.66 1.98 1 3 C-0.375 5.6875 -0.375 5.6875 -2 8 C-2.33 8 -2.66 8 -3 8 C-3.1875 5.125 -3.1875 5.125 -3 2 C-2.01 1.34 -1.02 0.68 0 0 Z " fill="#472B15" transform="translate(82,86)"/>
<path d="M0 0 C1.32 0 2.64 0 4 0 C4 0.66 4 1.32 4 2 C4.66 2.66 5.32 3.32 6 4 C4.02 4.33 2.04 4.66 0 5 C0 3.35 0 1.7 0 0 Z " fill="#C0AB9F" transform="translate(191,52)"/>
<path d="M0 0 C3.94727588 -0.17942163 6.5980513 -0.09350689 10 2 C10 2.66 10 3.32 10 4 C6.44219804 3.39009109 3.3171411 2.4216319 0 1 C0 0.67 0 0.34 0 0 Z " fill="#331D0C" transform="translate(112,43)"/>
<path d="M0 0 C0.66 0 1.32 0 2 0 C2.93065133 2.60582371 3.14917407 3.64198224 2.0625 6.25 C1.5365625 7.11625 1.5365625 7.11625 1 8 C0.26919734 6.02253397 -0.39421747 4.01927511 -1 2 C-0.67 1.34 -0.34 0.68 0 0 Z " fill="#523827" transform="translate(200,40)"/>
<path d="M0 0 C2.50357861 0.8345262 4.66785852 1.79371992 7 3 C4.29120665 4.35439668 1.99066732 4.06501451 -1 4 C-0.67 2.68 -0.34 1.36 0 0 Z " fill="#432916" transform="translate(110,42)"/>
</svg>
